<?xml version="1.0" encoding="utf-8"?>
<!-- Generator: Adobe Illustrator 16.0.0, SVG Export Plug-In . SVG Version: 6.00 Build 0)  -->
<!DOCTYPE svg PUBLIC "-//W3C//DTD SVG 1.1//EN" "http://www.w3.org/Graphics/SVG/1.1/DTD/svg11.dtd">
<svg version="1.1" id="Ebene_1" xmlns="http://www.w3.org/2000/svg" xmlns:xlink="http://www.w3.org/1999/xlink" x="0px" y="0px"
	 width="169.5px" height="57.583px" viewBox="0 0 169.5 57.583" enable-background="new 0 0 169.5 57.583" xml:space="preserve">
<g>
	<defs>
		<rect id="SVGID_1_" width="168.124" height="57.23"/>
	</defs>
	<clipPath id="SVGID_2_">
		<use xlink:href="#SVGID_1_"  overflow="visible"/>
	</clipPath>
	<path clip-path="url(#SVGID_2_)" fill="#EAEAEA" d="M162.225,3.55H7.54c-3.245,0-5.9,3.052-5.9,6.783v40.115
		c0,3.729,2.659,6.782,5.9,6.782h154.685c3.239,0,5.899-3.057,5.899-6.782V10.333C168.124,6.608,165.469,3.55,162.225,3.55"/>
	<path clip-path="url(#SVGID_2_)" fill="#EAEAEA" d="M5.902,1.413h154.684c3.245,0,5.9,3.057,5.9,6.782v40.115
		c0,3.727-2.659,6.783-5.9,6.783H5.902C2.662,55.094,0,52.042,0,48.311V8.195C0,4.465,2.657,1.413,5.902,1.413"/>
	<path clip-path="url(#SVGID_2_)" fill="#FFFFFF" d="M5.902,0.001h154.684c3.245,0,5.9,3.057,5.9,6.782v40.115
		c0,3.727-2.659,6.783-5.9,6.783H5.902C2.662,53.682,0,50.629,0,46.898V6.783C0,3.053,2.657,0.001,5.902,0.001"/>
	<path clip-path="url(#SVGID_2_)" fill="#EAEAEA" d="M9.601,4.539h148.06c3.059,0,5.561,2.884,5.561,6.393v32.343
		c0,3.513-2.506,6.393-5.561,6.393H9.601c-3.055,0-5.561-2.876-5.561-6.393V10.932C4.04,7.415,6.542,4.539,9.601,4.539"/>
	<path clip-path="url(#SVGID_2_)" fill="#F4CC96" d="M8.323,3.708h148.25c3.039,0,5.521,2.861,5.521,6.348v31.482
		c0,3.485-2.49,6.348-5.521,6.348H8.323c-3.034,0-5.524-2.857-5.524-6.348V10.056C2.799,6.564,5.285,3.708,8.323,3.708"/>
	<path clip-path="url(#SVGID_2_)" fill="#FAEFD5" d="M8.239,2.042h147.177c2.991,0,5.439,2.817,5.439,6.253v29.586
		c0,3.434-2.452,6.253-5.439,6.253H8.239c-2.987,0-5.44-2.812-5.44-6.253V8.295C2.799,4.855,5.247,2.042,8.239,2.042"/>
	<path clip-path="url(#SVGID_2_)" fill="#FAEFD1" d="M9.117,2.874h145.418c2.957,0,5.375,2.785,5.375,6.176v28.074
		c0,3.392-2.422,6.179-5.375,6.179H9.117c-2.95,0-5.375-2.781-5.375-6.179V9.05C3.742,5.654,6.162,2.874,9.117,2.874"/>
	<path clip-path="url(#SVGID_2_)" fill="#F8EECF" d="M9.995,3.705h143.662c2.92,0,5.308,2.753,5.308,6.104v26.557
		c0,3.353-2.392,6.104-5.308,6.104H9.995c-2.913,0-5.308-2.746-5.308-6.104V9.81C4.687,6.451,7.078,3.705,9.995,3.705"/>
	<path clip-path="url(#SVGID_2_)" fill="#F8EECD" d="M10.875,4.539h141.904c2.883,0,5.24,2.718,5.24,6.025v25.045
		c0,3.31-2.361,6.028-5.24,6.028H10.875c-2.878,0-5.243-2.713-5.243-6.028V10.564C5.632,7.25,7.993,4.539,10.875,4.539"/>
	<path clip-path="url(#SVGID_2_)" fill="#F8EBCB" d="M11.753,5.371h140.148c2.845,0,5.175,2.683,5.175,5.951v23.529
		c0,3.269-2.334,5.952-5.175,5.952H11.753c-2.843,0-5.175-2.679-5.175-5.952V11.322C6.579,8.049,8.906,5.371,11.753,5.371"/>
	<path clip-path="url(#SVGID_2_)" fill="#F8EBC7" d="M12.632,6.205h138.39c2.812,0,5.11,2.647,5.11,5.872v22.02
		c0,3.226-2.304,5.875-5.11,5.875H12.632c-2.806,0-5.11-2.643-5.11-5.875v-22.02C7.521,8.848,9.821,6.205,12.632,6.205"/>
	<path clip-path="url(#SVGID_2_)" fill="#F6EBC5" d="M13.512,7.036h136.63c2.773,0,5.043,2.615,5.043,5.798v20.507
		c0,3.184-2.273,5.798-5.043,5.798H13.512c-2.771,0-5.045-2.609-5.045-5.798V12.834C8.467,9.646,10.736,7.036,13.512,7.036"/>
	<path clip-path="url(#SVGID_2_)" fill="#F7EAC2" d="M14.39,7.868h134.875c2.739,0,4.978,2.581,4.978,5.723v18.992
		c0,3.143-2.246,5.723-4.978,5.723H14.39c-2.734,0-4.978-2.575-4.978-5.723V13.591C9.412,10.444,11.652,7.868,14.39,7.868"/>
	<path clip-path="url(#SVGID_2_)" fill="#F6EAC1" d="M15.268,8.702h133.117c2.703,0,4.912,2.546,4.912,5.646v17.479
		c0,3.099-2.215,5.645-4.912,5.645H15.268c-2.697,0-4.913-2.539-4.913-5.645V14.349C10.355,11.243,12.567,8.702,15.268,8.702"/>
	<path clip-path="url(#SVGID_2_)" fill="#F7E7BC" d="M16.148,9.533h131.357c2.668,0,4.846,2.514,4.846,5.573V31.07
		c0,3.058-2.186,5.57-4.846,5.57H16.148c-2.662,0-4.848-2.506-4.848-5.57V15.106C11.3,12.042,13.481,9.533,16.148,9.533"/>
	<path clip-path="url(#SVGID_2_)" fill="#F7E7BA" d="M17.026,10.367h129.603c2.629,0,4.777,2.479,4.777,5.493v14.453
		c0,3.018-2.154,5.494-4.777,5.494H17.026c-2.625,0-4.78-2.473-4.78-5.494V15.86C12.247,12.838,14.397,10.367,17.026,10.367"/>
	<path clip-path="url(#SVGID_2_)" fill="#F7E7B8" d="M17.904,11.201H145.75c2.592,0,4.713,2.441,4.713,5.417v12.94
		c0,2.973-2.125,5.417-4.713,5.417H17.904c-2.588,0-4.713-2.437-4.713-5.417v-12.94C13.191,13.639,15.312,11.201,17.904,11.201"/>
	<path clip-path="url(#SVGID_2_)" fill="#FFFFFF" d="M155.971,35.963c1.654,0,2.994,1.542,2.994,3.444c0,1.9-1.34,3.442-2.994,3.442
		c-1.656,0-2.996-1.542-2.996-3.442C152.975,37.505,154.314,35.963,155.971,35.963"/>
	<path clip-path="url(#SVGID_2_)" fill="#FFFFFF" d="M151.389,39.486c0.89,0,1.611,0.829,1.611,1.854s-0.722,1.855-1.611,1.855
		c-0.893,0-1.615-0.831-1.615-1.855S150.496,39.486,151.389,39.486"/>
	<path clip-path="url(#SVGID_2_)" fill="#FFFFFF" d="M8.657,3.622c2.555,0,4.63,2.383,4.63,5.321c0,2.94-2.075,5.324-4.63,5.324
		c-2.557,0-4.632-2.384-4.632-5.324C4.025,6.005,6.1,3.622,8.657,3.622"/>
	<path clip-path="url(#SVGID_2_)" fill="#FFFFFF" d="M15.797,2.979c1.415,0,2.562,1.318,2.562,2.944s-1.147,2.946-2.562,2.946
		c-1.415,0-2.562-1.32-2.562-2.946S14.383,2.979,15.797,2.979"/>
</g>
</svg>
