<?xml version="1.0" encoding="utf-8"?>
<!-- Generator: Adobe Illustrator 16.0.0, SVG Export Plug-In . SVG Version: 6.00 Build 0)  -->
<!DOCTYPE svg PUBLIC "-//W3C//DTD SVG 1.1//EN" "http://www.w3.org/Graphics/SVG/1.1/DTD/svg11.dtd">
<svg version="1.1" id="Ebene_1" xmlns="http://www.w3.org/2000/svg" xmlns:xlink="http://www.w3.org/1999/xlink" x="0px" y="0px"
	 width="59px" height="57.583px" viewBox="0 0 59 57.583" enable-background="new 0 0 59 57.583" xml:space="preserve">
<g>
	<defs>
		<rect id="SVGID_1_" y="0" width="58.666" height="57.472"/>
	</defs>
	<clipPath id="SVGID_2_">
		<use xlink:href="#SVGID_1_"  overflow="visible"/>
	</clipPath>
	<path clip-path="url(#SVGID_2_)" fill="#EAEAEA" d="M55.774,10.124c1.118,5.854,1.648,11.713,1.605,17.566
		c0.048,6.35-0.582,12.697-1.871,19.046c-0.783,3.856-3.442,6.776-7.612,7.136c-6.415,0.553-12.867,0.825-19.355,0.825
		c-6.535,0-13.106-0.277-19.714-0.825c-2.632-0.22-4.788-1.45-6.137-3.309c0.833,3.36,3.633,5.77,7.419,6.084
		c6.605,0.549,13.176,0.826,19.708,0.826c6.49,0,12.946-0.273,19.362-0.826c4.171-0.358,6.831-3.279,7.613-7.134
		c2.478-12.206,2.517-24.41,0-36.615C56.583,11.881,56.24,10.951,55.774,10.124"/>
	<path clip-path="url(#SVGID_2_)" fill="#EAEAEA" d="M8.827,2.986c13.169-2.189,26.194-2.217,39.07,0
		c4.119,0.708,6.818,3.281,7.612,7.133c2.518,12.207,2.479,24.41,0,36.617c-0.782,3.856-3.442,6.775-7.612,7.135
		c-12.875,1.108-25.901,1.093-39.07,0c-4.171-0.346-7.144-3.235-7.613-7.135c-1.465-12.207-1.763-24.411,0-36.617
		C1.776,6.23,4.704,3.67,8.827,2.986"/>
	<path clip-path="url(#SVGID_2_)" fill="#FFFFFF" d="M8.827,1.652c13.169-2.189,26.194-2.217,39.07,0
		c4.119,0.709,6.818,3.281,7.612,7.133c2.518,12.204,2.479,24.41,0,36.617c-0.782,3.854-3.442,6.775-7.612,7.133
		c-12.875,1.11-25.901,1.095-39.07,0c-4.171-0.344-7.144-3.233-7.613-7.133c-1.465-12.207-1.763-24.41,0-36.617
		C1.776,4.897,4.704,2.337,8.827,1.652"/>
	<path clip-path="url(#SVGID_2_)" fill="#EAEAEA" d="M11.74,5.198c11.81-1.962,23.49-1.987,35.035,0
		c3.692,0.638,6.113,2.942,6.827,6.398c2.255,10.944,2.221,21.888,0,32.833c-0.704,3.456-3.089,6.076-6.827,6.398
		c-11.546,0.995-23.227,0.981-35.035,0C8,50.515,5.334,47.925,4.914,44.429c-1.315-10.945-1.582-21.889,0-32.833
		C5.417,8.107,8.043,5.813,11.74,5.198"/>
	<path clip-path="url(#SVGID_2_)" fill="#00BBE0" d="M10.877,4.237c11.811-1.961,23.49-1.988,35.035,0
		c3.694,0.635,6.114,2.943,6.827,6.398c2.255,10.945,2.222,21.889,0,32.833c-0.702,3.459-3.087,6.078-6.827,6.398
		c-11.544,0.995-23.224,0.981-35.035,0c-3.739-0.31-6.404-2.899-6.825-6.398c-1.315-10.944-1.582-21.886,0-32.833
		C4.556,7.146,7.181,4.852,10.877,4.237"/>
	<path clip-path="url(#SVGID_2_)" fill="#A0FCFF" d="M10.877,2.017c11.811-1.964,23.49-1.989,35.035,0
		c3.694,0.634,6.114,2.943,6.827,6.397c2.255,10.943,2.222,21.888,0,32.833c-0.702,3.456-3.087,6.075-6.827,6.397
		c-11.544,0.993-23.224,0.981-35.035,0c-3.739-0.311-6.404-2.902-6.825-6.397c-1.315-10.945-1.582-21.89,0-32.833
		C4.556,4.928,7.181,2.631,10.877,2.017"/>
	<path clip-path="url(#SVGID_2_)" fill="#93F8FF" d="M11.115,2.313c11.652-1.938,23.179-1.96,34.57,0
		c3.645,0.626,6.033,2.904,6.736,6.311c2.226,10.802,2.192,21.601,0,32.399c-0.692,3.412-3.047,5.995-6.736,6.315
		c-11.392,0.98-22.918,0.967-34.57,0c-3.69-0.308-6.321-2.864-6.736-6.315c-1.297-10.8-1.561-21.598,0-32.399
		C4.876,5.187,7.468,2.918,11.115,2.313"/>
	<path clip-path="url(#SVGID_2_)" fill="#84F4FF" d="M11.351,2.609c11.496-1.91,22.868-1.934,34.107,0
		c3.595,0.619,5.952,2.866,6.646,6.228c2.198,10.654,2.165,21.31,0,31.964c-0.683,3.365-3.004,5.915-6.646,6.229
		c-11.24,0.966-22.611,0.955-34.107,0c-3.641-0.302-6.236-2.823-6.646-6.229c-1.279-10.654-1.539-21.307,0-31.964
		C5.197,5.443,7.752,3.208,11.351,2.609"/>
	<path clip-path="url(#SVGID_2_)" fill="#76F2FF" d="M11.585,2.906c11.341-1.882,22.558-1.909,33.645,0
		c3.546,0.611,5.871,2.827,6.555,6.146c2.167,10.508,2.133,21.019,0,31.529c-0.674,3.319-2.965,5.833-6.555,6.143
		c-11.088,0.955-22.304,0.943-33.645,0c-3.589-0.298-6.151-2.786-6.554-6.143c-1.263-10.51-1.519-21.019,0-31.529
		C5.515,5.702,8.037,3.496,11.585,2.906"/>
	<path clip-path="url(#SVGID_2_)" fill="#64EEFD" d="M11.821,3.205c11.185-1.859,22.247-1.882,33.181,0
		c3.497,0.601,5.79,2.785,6.464,6.057c2.137,10.365,2.105,20.73,0,31.096c-0.665,3.273-2.923,5.753-6.464,6.06
		c-10.935,0.94-21.996,0.929-33.181,0c-3.542-0.295-6.065-2.749-6.464-6.06c-1.246-10.366-1.498-20.73,0-31.096
		C5.834,5.96,8.321,3.786,11.821,3.205"/>
	<path clip-path="url(#SVGID_2_)" fill="#54EAFD" d="M12.058,3.501c11.027-1.833,21.935-1.856,32.715,0
		c3.448,0.595,5.709,2.748,6.375,5.974c2.107,10.221,2.076,20.44,0,30.662c-0.655,3.227-2.882,5.674-6.375,5.974
		c-10.782,0.928-21.688,0.915-32.715,0c-3.493-0.291-5.982-2.711-6.375-5.974c-1.227-10.222-1.477-20.441,0-30.662
		C6.154,6.219,8.605,4.075,12.058,3.501"/>
	<path clip-path="url(#SVGID_2_)" fill="#3EE6FD" d="M12.294,3.797c10.872-1.804,21.625-1.829,32.252,0
		c3.4,0.585,5.629,2.71,6.285,5.89c2.078,10.074,2.046,20.149,0,30.226c-0.646,3.182-2.842,5.592-6.285,5.889
		c-10.628,0.915-21.38,0.906-32.252,0c-3.442-0.285-5.896-2.669-6.282-5.889c-1.212-10.077-1.457-20.152,0-30.226
		C6.475,6.477,8.891,4.362,12.294,3.797"/>
	<path clip-path="url(#SVGID_2_)" fill="#25E2FD" d="M12.531,4.096c10.715-1.781,21.313-1.803,31.789,0
		c3.35,0.577,5.547,2.668,6.194,5.802c2.047,9.932,2.017,19.863,0,29.793c-0.638,3.137-2.802,5.513-6.194,5.805
		c-10.476,0.901-21.074,0.892-31.789,0c-3.394-0.281-5.812-2.63-6.194-5.805c-1.193-9.93-1.436-19.861,0-29.793
		C6.795,6.737,9.177,4.653,12.531,4.096"/>
	<path clip-path="url(#SVGID_2_)" fill="#00DEFD" d="M12.766,4.393c10.56-1.755,21.002-1.777,31.325,0
		c3.301,0.567,5.466,2.63,6.103,5.721c2.018,9.784,1.987,19.57,0,29.355c-0.628,3.09-2.761,5.432-6.103,5.721
		c-10.324,0.889-20.768,0.877-31.325,0c-3.343-0.278-5.728-2.593-6.103-5.721c-1.175-9.786-1.415-19.571,0-29.355
		C7.113,6.993,9.462,4.94,12.766,4.393"/>
	<path clip-path="url(#SVGID_2_)" fill="#00DBFD" d="M13.001,4.689c10.403-1.729,20.692-1.751,30.862,0
		c3.252,0.561,5.385,2.593,6.013,5.636c1.987,9.641,1.956,19.282,0,28.923c-0.619,3.044-2.72,5.35-6.013,5.635
		c-10.171,0.873-20.459,0.864-30.862,0c-3.294-0.274-5.642-2.557-6.013-5.635c-1.159-9.642-1.394-19.283,0-28.923
		C7.433,7.252,9.745,5.23,13.001,4.689"/>
	<path clip-path="url(#SVGID_2_)" fill="#00D7FD" d="M13.236,4.987c10.248-1.703,20.381-1.725,30.398,0
		c3.204,0.55,5.305,2.551,5.923,5.548c1.958,9.498,1.928,18.993,0,28.491c-0.61,2.998-2.679,5.27-5.923,5.547
		c-10.018,0.864-20.151,0.854-30.398,0c-3.244-0.268-5.556-2.515-5.922-5.547c-1.141-9.499-1.372-18.994,0-28.491
		C7.752,7.511,10.031,5.519,13.236,4.987"/>
	<path clip-path="url(#SVGID_2_)" fill="#00D3FD" d="M13.471,5.284c10.091-1.678,20.07-1.698,29.934,0
		c3.155,0.543,5.225,2.513,5.833,5.466c1.928,9.35,1.899,18.701,0,28.054c-0.6,2.953-2.638,5.19-5.833,5.464
		c-9.864,0.852-19.844,0.839-29.934,0c-3.194-0.265-5.473-2.478-5.831-5.464c-1.125-9.354-1.352-18.704,0-28.054
		C8.071,7.77,10.314,5.807,13.471,5.284"/>
	<path clip-path="url(#SVGID_2_)" fill="#FFFFFF" d="M28.547,0.533c-5.856,0-11.748,0.498-17.669,1.484
		C7.181,2.631,4.556,4.928,4.053,8.415c-0.006,0.04-0.012,0.079-0.017,0.117c0.005-0.038,0.011-0.078,0.017-0.117
		c0.503-3.486,3.128-5.783,6.825-6.397C16.799,1.031,22.69,0.533,28.547,0.533c5.822,0,11.61,0.492,17.366,1.484
		c3.694,0.634,6.114,2.943,6.827,6.397c0.009,0.041,0.018,0.085,0.027,0.126c-0.009-0.042-0.018-0.085-0.027-0.126
		c-0.713-3.455-3.133-5.764-6.827-6.397C40.157,1.025,34.369,0.533,28.547,0.533 M52.767,8.548c0.009,0.042,0.016,0.081,0.024,0.121
		C52.782,8.629,52.775,8.59,52.767,8.548 M4.025,8.607C4.022,8.621,4.02,8.637,4.019,8.65C4.02,8.637,4.022,8.621,4.025,8.607
		 M52.792,8.673c0.072,0.351,0.14,0.698,0.206,1.048C52.931,9.371,52.863,9.023,52.792,8.673 M4.007,8.737
		C4.004,8.746,4.004,8.758,4.001,8.769C4.004,8.758,4.004,8.746,4.007,8.737 M3.989,8.862C3.987,8.869,3.986,8.876,3.986,8.883
		C3.986,8.876,3.987,8.869,3.989,8.862 M3.972,8.984c0,0.003-0.001,0.009-0.002,0.015C3.971,8.993,3.972,8.987,3.972,8.984
		 M3.955,9.105v0.003V9.105 M3.818,10.14c0,0.004,0,0.007-0.001,0.012C3.818,10.147,3.818,10.144,3.818,10.14 M3.804,10.257
		c-0.001,0.004-0.001,0.006-0.001,0.01C3.803,10.263,3.803,10.258,3.804,10.257 M3.789,10.372c-0.001,0.006-0.001,0.009-0.002,0.016
		C3.788,10.385,3.788,10.376,3.789,10.372 M3.774,10.489c0,0.005-0.001,0.009-0.001,0.015C3.773,10.5,3.774,10.494,3.774,10.489
		 M3.736,10.801c-0.001,0.012-0.003,0.026-0.004,0.038C3.733,10.828,3.735,10.813,3.736,10.801 M3.726,10.897
		c-0.004,0.023-0.006,0.045-0.009,0.07C3.719,10.943,3.722,10.919,3.726,10.897 M3.711,11.009c-0.002,0.028-0.006,0.055-0.01,0.083
		C3.706,11.064,3.709,11.037,3.711,11.009 M3.697,11.132c-0.003,0.029-0.006,0.06-0.01,0.09C3.691,11.192,3.693,11.162,3.697,11.132
		 M3.684,11.25c-0.004,0.036-0.008,0.07-0.012,0.105C3.675,11.32,3.68,11.286,3.684,11.25 M3.669,11.371
		c-0.396,3.456-0.615,6.916-0.683,10.371C3.054,18.287,3.273,14.827,3.669,11.371 M2.985,21.764c0,0.022,0,0.045-0.001,0.066
		C2.985,21.809,2.985,21.786,2.985,21.764"/>
	<path clip-path="url(#SVGID_2_)" fill="#F0F0F0" d="M52.997,9.721c0.857,4.518,1.323,9.036,1.408,13.553
		C54.321,18.756,53.854,14.239,52.997,9.721"/>
	<path clip-path="url(#SVGID_2_)" fill="#BFFDFF" d="M28.547,0.534c-5.856,0-11.748,0.497-17.669,1.483
		C7.181,2.631,4.556,4.928,4.053,8.414c-0.006,0.041-0.012,0.08-0.017,0.117c-0.003,0.026-0.008,0.052-0.01,0.076
		C4.022,8.621,4.02,8.637,4.019,8.651C4.014,8.681,4.01,8.708,4.007,8.736c-0.002,0.01-0.003,0.022-0.006,0.032
		C3.997,8.8,3.992,8.832,3.989,8.862C3.987,8.87,3.986,8.876,3.986,8.883C3.981,8.916,3.977,8.949,3.972,8.984
		c0,0.003-0.001,0.009-0.002,0.015C3.965,9.035,3.96,9.07,3.955,9.104v0.004C3.913,9.415,3.872,9.721,3.833,10.03
		c-0.006,0.035-0.01,0.073-0.015,0.109c0,0.003,0,0.007-0.001,0.012c-0.005,0.034-0.009,0.069-0.013,0.105
		c-0.001,0.001-0.001,0.006-0.001,0.01c-0.004,0.033-0.009,0.069-0.013,0.106c-0.001,0.003-0.001,0.011-0.002,0.015
		c-0.004,0.034-0.008,0.068-0.013,0.102c0,0.003-0.001,0.01-0.001,0.014c-0.013,0.099-0.025,0.199-0.037,0.298
		c-0.001,0.013-0.003,0.026-0.004,0.039c-0.003,0.02-0.004,0.038-0.007,0.058c-0.004,0.022-0.006,0.045-0.009,0.07
		c-0.002,0.013-0.003,0.028-0.005,0.041c-0.002,0.028-0.006,0.057-0.01,0.084c-0.001,0.013-0.003,0.025-0.005,0.04
		c-0.003,0.029-0.006,0.06-0.01,0.089c-0.002,0.01-0.003,0.019-0.003,0.028c-0.004,0.036-0.008,0.069-0.012,0.105
		c-0.001,0.006-0.001,0.01-0.002,0.015c-0.396,3.458-0.615,6.916-0.683,10.372c0,0.007,0,0.014-0.001,0.022
		c0,0.021,0,0.044-0.001,0.065c-0.008,0.45-0.013,0.902-0.017,1.351c0.114,0.109,0.226,0.213,0.34,0.318
		c0.023-4.958,0.356-9.915,1.072-14.874c0.497-3.439,3.088-5.708,6.736-6.312C16.958,1.342,22.771,0.85,28.547,0.85
		c5.747,0,11.458,0.486,17.139,1.463c3.645,0.627,6.033,2.903,6.736,6.312c0.998,4.842,1.542,9.68,1.64,14.521
		c0.115,0.041,0.229,0.085,0.343,0.129c-0.085-4.518-0.551-9.037-1.408-13.554c-0.066-0.35-0.134-0.698-0.206-1.049
		c0,0-0.001-0.002-0.001-0.003c-0.008-0.04-0.015-0.079-0.024-0.12c0-0.003,0-0.006,0-0.008c-0.009-0.042-0.018-0.086-0.027-0.128
		c-0.713-3.454-3.133-5.762-6.827-6.396C40.157,1.025,34.369,0.534,28.547,0.534"/>
	<path clip-path="url(#SVGID_2_)" fill="#B5F9FF" d="M28.547,0.851c-5.776,0-11.589,0.491-17.432,1.462
		C7.468,2.917,4.876,5.186,4.379,8.625c-0.716,4.959-1.049,9.916-1.072,14.874c0.113,0.104,0.226,0.206,0.34,0.306
		c0.012-4.989,0.338-9.979,1.059-14.967c0.492-3.396,3.047-5.631,6.646-6.229c5.766-0.957,11.501-1.442,17.203-1.442
		c5.667,0,11.301,0.478,16.904,1.442c3.594,0.62,5.952,2.866,6.645,6.229c0.975,4.728,1.511,9.456,1.617,14.184
		c0.113,0.04,0.228,0.082,0.341,0.123c-0.098-4.839-0.642-9.678-1.64-14.52c-0.703-3.409-3.091-5.685-6.736-6.312
		C40.005,1.336,34.293,0.851,28.547,0.851"/>
	<path clip-path="url(#SVGID_2_)" fill="#ABF9FF" d="M28.554,1.167c-5.702,0-11.437,0.486-17.203,1.442
		C7.752,3.207,5.197,5.442,4.705,8.838c-0.721,4.988-1.046,9.978-1.058,14.967c0.113,0.099,0.226,0.196,0.338,0.292
		c0-5.015,0.321-10.031,1.045-15.045c0.484-3.349,3.006-5.554,6.555-6.146C17.275,1.96,22.934,1.485,28.56,1.485
		c5.589,0,11.146,0.47,16.67,1.421c3.546,0.611,5.871,2.826,6.555,6.146c0.953,4.616,1.479,9.233,1.591,13.849
		c0.115,0.04,0.229,0.08,0.345,0.121c-0.106-4.728-0.642-9.456-1.616-14.184c-0.694-3.363-3.05-5.609-6.646-6.229
		C39.856,1.645,34.222,1.167,28.554,1.167"/>
	<path clip-path="url(#SVGID_2_)" fill="#A1F5FF" d="M28.56,1.485c-5.626,0-11.285,0.477-16.974,1.421
		C8.037,3.497,5.515,5.702,5.031,9.051c-0.725,5.014-1.045,10.03-1.045,15.045c0.113,0.094,0.227,0.188,0.34,0.28
		C4.315,19.338,4.629,14.3,5.357,9.262c0.477-3.301,2.964-5.477,6.464-6.058c5.61-0.931,11.189-1.403,16.737-1.403
		c5.512,0,10.994,0.464,16.443,1.403c3.498,0.601,5.79,2.787,6.464,6.058c0.93,4.506,1.449,9.016,1.566,13.523
		c0.114,0.037,0.229,0.075,0.344,0.114c-0.112-4.615-0.638-9.233-1.591-13.848c-0.684-3.319-3.009-5.534-6.555-6.146
		C39.706,1.955,34.148,1.485,28.56,1.485"/>
	<path clip-path="url(#SVGID_2_)" fill="#97F2FF" d="M28.558,1.801c-5.546,0-11.127,0.472-16.737,1.403
		c-3.5,0.582-5.988,2.756-6.464,6.058c-0.729,5.038-1.042,10.078-1.03,15.115c0.115,0.093,0.228,0.183,0.341,0.271
		C4.644,19.588,4.953,14.534,5.683,9.475c0.471-3.256,2.922-5.4,6.375-5.974c5.532-0.919,11.033-1.383,16.504-1.383
		c5.434,0,10.839,0.458,16.211,1.383c3.448,0.595,5.709,2.748,6.375,5.974c0.906,4.399,1.417,8.799,1.539,13.199
		c0.114,0.036,0.229,0.073,0.344,0.111c-0.118-4.507-0.637-9.016-1.565-13.522c-0.674-3.271-2.967-5.457-6.464-6.058
		C39.553,2.265,34.071,1.801,28.558,1.801"/>
	<path clip-path="url(#SVGID_2_)" fill="#8DF1FF" d="M28.562,2.118c-5.471,0-10.972,0.464-16.504,1.383
		C8.606,4.075,6.155,6.219,5.683,9.475c-0.731,5.059-1.04,10.114-1.015,15.173c0.113,0.087,0.229,0.175,0.342,0.259
		c-0.035-5.075,0.267-10.146,1-15.219c0.464-3.212,2.88-5.325,6.283-5.89c5.454-0.905,10.878-1.363,16.271-1.363
		c5.358,0,10.685,0.451,15.982,1.363c3.4,0.585,5.628,2.71,6.285,5.89c0.885,4.294,1.387,8.586,1.514,12.88
		c0.115,0.034,0.229,0.07,0.342,0.105c-0.122-4.399-0.632-8.8-1.539-13.199c-0.666-3.226-2.927-5.379-6.375-5.974
		C39.4,2.576,33.996,2.118,28.562,2.118"/>
	<path clip-path="url(#SVGID_2_)" fill="#85EDFD" d="M28.564,2.435c-5.393,0-10.817,0.458-16.271,1.363
		c-3.402,0.565-5.818,2.679-6.282,5.89C5.278,14.76,4.976,19.832,5.011,24.907c0.114,0.083,0.229,0.164,0.343,0.244
		C5.307,20.066,5.602,14.982,6.337,9.899c0.457-3.162,2.84-5.246,6.193-5.803c5.373-0.894,10.72-1.343,16.033-1.343
		c5.282,0,10.534,0.443,15.755,1.343c3.351,0.577,5.547,2.669,6.193,5.803c0.865,4.188,1.358,8.377,1.489,12.568
		c0.115,0.032,0.229,0.066,0.344,0.102c-0.126-4.295-0.628-8.587-1.514-12.881c-0.656-3.18-2.884-5.305-6.285-5.89
		C39.25,2.887,33.923,2.435,28.564,2.435"/>
	<path clip-path="url(#SVGID_2_)" fill="#7BEAFD" d="M28.563,2.753c-5.313,0-10.66,0.45-16.033,1.343
		C9.177,4.653,6.795,6.737,6.337,9.898c-0.734,5.085-1.03,10.168-0.983,15.253c0.114,0.082,0.23,0.159,0.343,0.235
		c-0.058-5.09,0.231-10.182,0.966-15.272c0.45-3.12,2.798-5.174,6.103-5.721c5.296-0.88,10.563-1.325,15.799-1.325
		c5.205,0,10.38,0.439,15.525,1.325c3.302,0.567,5.467,2.63,6.103,5.721c0.843,4.085,1.329,8.17,1.463,12.253
		c0.114,0.032,0.229,0.066,0.344,0.1c-0.13-4.191-0.624-8.379-1.488-12.569c-0.647-3.134-2.843-5.225-6.194-5.802
		C39.097,3.196,33.847,2.753,28.563,2.753"/>
	<path clip-path="url(#SVGID_2_)" fill="#70E8FD" d="M28.565,3.067c-5.236,0-10.504,0.445-15.799,1.325
		C9.462,4.94,7.113,6.993,6.663,10.113c-0.735,5.09-1.024,10.182-0.965,15.272c0.114,0.076,0.228,0.151,0.342,0.223
		c-0.069-5.094,0.213-10.19,0.95-15.284c0.443-3.073,2.755-5.094,6.011-5.636c5.218-0.867,10.408-1.306,15.567-1.306
		c5.126,0,10.225,0.432,15.295,1.306c3.252,0.561,5.385,2.593,6.013,5.636c0.82,3.983,1.297,7.967,1.437,11.951
		c0.115,0.029,0.229,0.06,0.345,0.092c-0.136-4.084-0.62-8.169-1.463-12.254c-0.637-3.089-2.802-5.154-6.104-5.721
		C38.945,3.507,33.771,3.067,28.565,3.067"/>
	<path clip-path="url(#SVGID_2_)" fill="#63E4FD" d="M28.568,3.383c-5.16,0-10.349,0.438-15.567,1.306
		C9.745,5.23,7.433,7.252,6.989,10.325c-0.737,5.094-1.019,10.19-0.949,15.284c0.114,0.072,0.229,0.143,0.344,0.21
		c-0.079-5.094,0.194-10.188,0.931-15.285c0.437-3.024,2.716-5.016,5.922-5.547c5.139-0.854,10.252-1.286,15.334-1.286
		c5.05,0,10.07,0.426,15.063,1.286c3.204,0.549,5.305,2.551,5.923,5.547c0.8,3.885,1.268,7.767,1.41,11.652
		c0.115,0.029,0.229,0.057,0.344,0.089c-0.139-3.984-0.616-7.968-1.436-11.951c-0.627-3.042-2.761-5.075-6.013-5.636
		C38.793,3.815,33.696,3.383,28.568,3.383"/>
	<path clip-path="url(#SVGID_2_)" fill="#56E2FD" d="M28.571,3.702c-5.083,0-10.194,0.432-15.334,1.285
		c-3.206,0.531-5.484,2.524-5.922,5.548c-0.736,5.096-1.01,10.19-0.931,15.284c0.114,0.07,0.229,0.136,0.343,0.201
		C6.637,20.93,6.904,15.84,7.64,10.75c0.431-2.98,2.674-4.943,5.832-5.466c5.06-0.842,10.093-1.266,15.095-1.266
		c4.975,0,9.921,0.42,14.839,1.266c3.155,0.543,5.224,2.513,5.832,5.466c0.78,3.784,1.241,7.567,1.386,11.353
		c0.115,0.025,0.229,0.055,0.345,0.083c-0.142-3.884-0.611-7.766-1.411-11.65c-0.619-2.997-2.72-4.998-5.923-5.548
		C38.641,4.127,33.621,3.702,28.571,3.702"/>
	<path clip-path="url(#SVGID_2_)" fill="#48DFFD" d="M28.567,4.018c-5.003,0-10.036,0.424-15.096,1.266
		C10.314,5.807,8.07,7.77,7.64,10.75c-0.735,5.09-1.004,10.18-0.913,15.271c2.469,1.399,4.955,1.942,7.492,1.942
		c0.557,0,1.117-0.026,1.679-0.076V11.444c0.006-2.408,2.083-4.356,4.651-4.359h3.263c2.167,0.003,3.984,1.389,4.503,3.268
		c0.519-1.879,2.337-3.264,4.503-3.268h3.263c2.569,0.003,4.647,1.95,4.652,4.359v10.063c1.078-0.111,2.173-0.175,3.288-0.175
		c2.127,0,4.326,0.23,6.602,0.771c-0.146-3.786-0.605-7.568-1.386-11.353c-0.608-2.954-2.677-4.923-5.832-5.466
		C38.488,4.438,33.541,4.018,28.567,4.018"/>
	<path clip-path="url(#SVGID_2_)" fill="#FFFFFF" d="M10.495,3.515c2.551,0,4.618,1.937,4.618,4.328c0,2.39-2.067,4.328-4.618,4.328
		c-2.551,0-4.619-1.938-4.619-4.328C5.875,5.451,7.943,3.515,10.495,3.515"/>
	<path clip-path="url(#SVGID_2_)" fill="#FFFFFF" d="M17.556,1.674c1.27,0,2.298,0.963,2.298,2.153c0,1.188-1.028,2.152-2.298,2.152
		c-1.269,0-2.296-0.963-2.296-2.152C15.26,2.637,16.287,1.674,17.556,1.674"/>
	<path clip-path="url(#SVGID_2_)" fill="#FFFFFF" d="M46.986,41.446c1.523,0,2.757,1.156,2.757,2.583
		c0,1.427-1.234,2.583-2.757,2.583c-1.523,0-2.757-1.156-2.757-2.583C44.229,42.602,45.463,41.446,46.986,41.446"/>
	<path clip-path="url(#SVGID_2_)" fill="#00BBE0" d="M23.812,8.549V7.084h-3.263c-2.568,0.004-4.645,1.952-4.651,4.36v24.522
		c0.007,2.407,2.082,4.354,4.651,4.359h3.263c2.571-0.006,4.646-1.954,4.652-4.359V11.444c-0.004-2.408-2.083-4.356-4.652-4.36
		V8.549v1.465c0.832,0.001,1.524,0.651,1.526,1.43v24.522c-0.002,0.778-0.697,1.429-1.526,1.43h-3.263
		c-0.828-0.001-1.523-0.654-1.525-1.43V11.444c0.001-0.779,0.696-1.429,1.525-1.43h3.263V8.549z M36.081,8.549V7.084h-3.263
		c-2.568,0.004-4.646,1.95-4.652,4.36v24.522c0.005,2.407,2.082,4.354,4.652,4.359h3.263c2.57-0.006,4.647-1.953,4.652-4.359V11.444
		c-0.005-2.41-2.083-4.356-4.652-4.36V8.549v1.465c0.831,0.001,1.524,0.651,1.527,1.43v24.522c-0.003,0.776-0.698,1.429-1.527,1.43
		h-3.263c-0.829-0.001-1.524-0.654-1.527-1.43V11.444c0.003-0.779,0.696-1.429,1.527-1.43h3.263V8.549z"/>
	<path clip-path="url(#SVGID_2_)" fill="#FFFFFF" d="M23.812,8.549h-3.263c-1.698,0-3.088,1.302-3.088,2.895v24.522
		c0,1.591,1.39,2.895,3.088,2.895h3.263c1.7,0,3.089-1.304,3.089-2.895V11.444C26.901,9.851,25.512,8.549,23.812,8.549
		 M36.081,8.549h-3.263c-1.7,0-3.09,1.302-3.09,2.895v24.522c0,1.591,1.39,2.895,3.09,2.895h3.263c1.7,0,3.089-1.304,3.089-2.895
		V11.444C39.17,9.851,37.781,8.549,36.081,8.549"/>
	<path clip-path="url(#SVGID_2_)" fill="#00ACCF" d="M38.705,37.491L38.705,37.491L38.705,37.491 M38.697,37.502
		c-0.001,0.002-0.002,0.003-0.003,0.003C38.695,37.506,38.695,37.504,38.697,37.502 M38.689,37.514
		c-0.003,0.004-0.004,0.006-0.006,0.009C38.685,37.52,38.686,37.518,38.689,37.514 M38.68,37.526
		c-0.066,0.097-0.137,0.189-0.217,0.278C38.542,37.715,38.614,37.623,38.68,37.526 M38.462,37.805
		c-0.003,0.003-0.006,0.008-0.009,0.012C38.456,37.813,38.458,37.808,38.462,37.805 M38.449,37.821
		c-0.002,0.001-0.005,0.003-0.007,0.008C38.444,37.824,38.447,37.822,38.449,37.821 M38.436,37.834
		c-0.001,0.001-0.003,0.004-0.005,0.006C38.433,37.838,38.435,37.836,38.436,37.834 M38.421,37.851c0,0-0.001,0.002-0.001,0.002
		C38.42,37.853,38.42,37.851,38.421,37.851 M38.104,38.149c-0.001,0.002-0.001,0.002-0.002,0.002
		C38.103,38.151,38.103,38.151,38.104,38.149 M38.097,38.155c-0.543,0.439-1.248,0.706-2.016,0.706h0
		C36.851,38.861,37.554,38.596,38.097,38.155 M32.791,38.861h0.002H32.791z"/>
	<path clip-path="url(#SVGID_2_)" fill="#EAEAEA" d="M37.285,8.78c0.221,0.398,0.348,0.852,0.348,1.33v0.076
		c0.178,0.191,0.317,0.417,0.404,0.667l-0.404-0.33v24.11c0,1.592-1.39,2.894-3.088,2.894h-3.263c-0.427,0-0.834-0.082-1.204-0.231
		c0.512,0.919,1.537,1.556,2.714,1.566h0.002h0.027h2.924h0.337c0.768,0,1.474-0.267,2.016-0.706c0.003,0,0.004-0.002,0.005-0.004
		c0.001,0,0.001,0,0.002-0.002c0.036-0.027,0.071-0.06,0.105-0.09c0.073-0.065,0.144-0.135,0.21-0.206
		c0.001,0,0.001-0.002,0.001-0.002c0.004-0.005,0.007-0.007,0.009-0.011c0.002-0.002,0.005-0.004,0.005-0.006
		c0.002-0.002,0.004-0.004,0.006-0.006c0.003-0.003,0.004-0.006,0.008-0.008c0.001-0.001,0.002-0.004,0.004-0.004
		c0.002-0.004,0.006-0.008,0.009-0.012h0c0.079-0.089,0.151-0.182,0.217-0.278c0,0,0.002-0.003,0.003-0.004
		c0.001-0.002,0.004-0.004,0.006-0.008c0-0.002,0.003-0.004,0.005-0.008c0.001,0,0.002-0.001,0.003-0.003
		c0.001-0.004,0.004-0.008,0.008-0.012h0.001c0.294-0.444,0.463-0.966,0.463-1.524V11.444C39.169,10.252,38.391,9.222,37.285,8.78"
		/>
	<path clip-path="url(#SVGID_2_)" fill="#00ACCF" d="M26.896,11.306c0,0,0.001,0,0.001,0.001L26.896,11.306 M26.9,11.359v0.004
		V11.359 M26.901,11.413v0.004V11.413 M17.809,37.297c0.104,0.187,0.23,0.363,0.376,0.525
		C18.041,37.661,17.914,37.486,17.809,37.297 M18.876,38.396c0.451,0.277,0.982,0.443,1.553,0.464
		C19.859,38.839,19.327,38.67,18.876,38.396 M20.43,38.86h0.018H20.43 M20.45,38.86h0.018H20.45 M20.469,38.86
		c0.006,0.001,0.013,0.001,0.019,0.001C20.482,38.861,20.476,38.861,20.469,38.86 M20.489,38.861h0.017H20.489 M20.51,38.861h0.018
		H20.51 M20.529,38.861h0.02H20.529"/>
	<path clip-path="url(#SVGID_2_)" fill="#EAEAEA" d="M25.016,8.78c0.222,0.398,0.348,0.852,0.348,1.33v0.076
		c0.179,0.195,0.317,0.422,0.403,0.668l-0.403-0.332v4.586v19.524c0,1.592-1.39,2.894-3.09,2.894h-3.262
		c-0.426,0-0.833-0.082-1.203-0.229c0.105,0.188,0.232,0.363,0.376,0.525c0.074,0.083,0.154,0.164,0.238,0.237
		c0.138,0.125,0.29,0.237,0.452,0.337c0.452,0.274,0.983,0.443,1.554,0.464h0.018h0.002h0.018h0.001
		c0.006,0.001,0.013,0.001,0.02,0.001h0.001h0.017h0.003h0.018h0.001h0.02h0.337h2.926c1.7,0,3.089-1.304,3.089-2.895V11.444v-0.026
		v-0.005c0-0.017-0.001-0.035-0.001-0.051v-0.004c-0.002-0.018-0.003-0.036-0.003-0.052v-0.001
		C26.839,10.173,26.078,9.204,25.016,8.78"/>
</g>
</svg>
