<?xml version="1.0" encoding="utf-8"?>
<!-- Generator: Adobe Illustrator 16.0.0, SVG Export Plug-In . SVG Version: 6.00 Build 0)  -->
<!DOCTYPE svg PUBLIC "-//W3C//DTD SVG 1.1//EN" "http://www.w3.org/Graphics/SVG/1.1/DTD/svg11.dtd">
<svg version="1.1" id="Ebene_1" xmlns="http://www.w3.org/2000/svg" xmlns:xlink="http://www.w3.org/1999/xlink" x="0px" y="0px"
	 width="59px" height="57.583px" viewBox="0 0 59 57.583" enable-background="new 0 0 59 57.583" xml:space="preserve">
<g>
	<defs>
		<rect id="SVGID_1_" y="0" width="58.561" height="57.583"/>
	</defs>
	<clipPath id="SVGID_2_">
		<use xlink:href="#SVGID_1_"  overflow="visible"/>
	</clipPath>
	<path clip-path="url(#SVGID_2_)" fill="#EAEAEA" d="M55.674,10.143c1.117,5.867,1.647,11.734,1.604,17.603
		c0.047,6.359-0.58,12.72-1.869,19.081c-0.78,3.861-3.436,6.789-7.598,7.148c-6.406,0.554-12.847,0.827-19.323,0.827
		c-6.524,0-13.082-0.278-19.677-0.827c-2.626-0.219-4.777-1.452-6.125-3.314c0.833,3.366,3.628,5.781,7.408,6.097
		c6.595,0.549,13.152,0.827,19.674,0.827c6.48,0,12.921-0.274,19.326-0.827c4.163-0.359,6.816-3.286,7.598-7.149
		c2.473-12.229,2.512-24.458,0-36.687C56.481,11.903,56.14,10.973,55.674,10.143"/>
	<path clip-path="url(#SVGID_2_)" fill="#EAEAEA" d="M8.81,2.991c13.147-2.192,26.148-2.22,39,0
		c4.111,0.711,6.805,3.289,7.599,7.148c2.514,12.228,2.475,24.458,0,36.686c-0.781,3.862-3.436,6.79-7.599,7.149
		c-12.853,1.111-25.853,1.095-39,0c-4.162-0.348-7.129-3.242-7.597-7.149c-1.465-12.228-1.762-24.456,0-36.686
		C1.773,6.244,4.697,3.677,8.81,2.991"/>
	<path clip-path="url(#SVGID_2_)" fill="#FFFFFF" d="M8.81,1.654c13.147-2.192,26.148-2.219,39,0
		c4.111,0.711,6.805,3.288,7.599,7.149c2.514,12.228,2.475,24.458,0,36.686c-0.781,3.863-3.436,6.789-7.599,7.147
		c-12.853,1.111-25.853,1.098-39,0c-4.162-0.345-7.129-3.24-7.597-7.147c-1.465-12.229-1.762-24.458,0-36.686
		C1.773,4.908,4.697,2.342,8.81,1.654"/>
	<path clip-path="url(#SVGID_2_)" fill="#EAEAEA" d="M11.718,5.208c11.788-1.966,23.448-1.99,34.971,0
		c3.688,0.638,6.104,2.948,6.814,6.41c2.253,10.965,2.219,21.933,0,32.897c-0.699,3.463-3.079,6.087-6.814,6.409
		c-11.523,0.997-23.183,0.984-34.971,0c-3.732-0.31-6.392-2.906-6.812-6.409c-1.314-10.966-1.581-21.93,0-32.897
		C5.409,8.125,8.028,5.824,11.718,5.208"/>
	<path clip-path="url(#SVGID_2_)" fill="#00BBE0" d="M10.86,4.245c11.788-1.965,23.445-1.991,34.971,0
		c3.686,0.637,6.103,2.949,6.814,6.41c2.251,10.966,2.218,21.933,0,32.898c-0.701,3.461-3.082,6.086-6.814,6.408
		c-11.526,0.997-23.185,0.983-34.971,0c-3.735-0.31-6.394-2.907-6.814-6.408c-1.314-10.966-1.579-21.932,0-32.898
		C4.549,7.162,7.17,4.862,10.86,4.245"/>
	<path clip-path="url(#SVGID_2_)" fill="#A0FCFF" d="M10.86,2.019c11.788-1.965,23.445-1.99,34.971,0
		c3.686,0.638,6.103,2.95,6.814,6.411c2.251,10.965,2.218,21.932,0,32.897c-0.701,3.462-3.082,6.086-6.814,6.41
		c-11.526,0.996-23.185,0.982-34.971,0c-3.735-0.312-6.394-2.907-6.814-6.41c-1.314-10.966-1.579-21.931,0-32.897
		C4.549,4.937,7.17,2.636,10.86,2.019"/>
	<path clip-path="url(#SVGID_2_)" fill="#93F8FF" d="M11.095,2.316c11.631-1.939,23.136-1.964,34.51,0
		c3.636,0.63,6.02,2.91,6.722,6.325c2.223,10.821,2.189,21.641,0,32.462c-0.691,3.417-3.041,6.006-6.722,6.324
		c-11.374,0.984-22.878,0.969-34.51,0c-3.684-0.306-6.31-2.868-6.723-6.324c-1.297-10.822-1.558-21.642,0-32.462
		C4.868,5.194,7.454,2.924,11.095,2.316"/>
	<path clip-path="url(#SVGID_2_)" fill="#84F4FF" d="M11.331,2.615c11.478-1.914,22.827-1.938,34.045,0
		c3.59,0.621,5.943,2.87,6.634,6.239c2.194,10.676,2.16,21.351,0,32.027c-0.683,3.37-2.999,5.925-6.634,6.239
		c-11.218,0.97-22.567,0.957-34.045,0c-3.635-0.303-6.226-2.829-6.634-6.239c-1.278-10.676-1.537-21.351,0-32.027
		C5.186,5.454,7.737,3.213,11.331,2.615"/>
	<path clip-path="url(#SVGID_2_)" fill="#76F2FF" d="M11.566,2.912c11.322-1.887,22.517-1.912,33.583,0
		c3.542,0.612,5.86,2.831,6.544,6.156c2.163,10.53,2.131,21.061,0,31.59c-0.674,3.326-2.96,5.846-6.544,6.156
		c-11.065,0.956-22.263,0.944-33.583,0c-3.584-0.301-6.14-2.792-6.543-6.156c-1.261-10.53-1.516-21.059,0-31.59
		C5.507,5.713,8.024,3.504,11.566,2.912"/>
	<path clip-path="url(#SVGID_2_)" fill="#64EEFD" d="M11.801,3.21c11.165-1.862,22.206-1.887,33.121,0
		c3.491,0.604,5.78,2.792,6.455,6.071c2.131,10.385,2.1,20.77,0,31.154c-0.664,3.28-2.919,5.766-6.455,6.07
		c-10.915,0.945-21.956,0.931-33.121,0c-3.535-0.295-6.055-2.753-6.452-6.07c-1.244-10.385-1.496-20.769,0-31.154
		C5.826,5.972,8.308,3.793,11.801,3.21"/>
	<path clip-path="url(#SVGID_2_)" fill="#54EAFD" d="M12.038,3.507c11.007-1.836,21.894-1.859,32.657,0
		c3.442,0.596,5.699,2.752,6.362,5.985c2.103,10.24,2.071,20.479,0,30.721c-0.655,3.233-2.878,5.685-6.362,5.985
		c-10.763,0.93-21.65,0.917-32.657,0c-3.487-0.292-5.972-2.715-6.365-5.985c-1.225-10.241-1.473-20.479,0-30.721
		C6.145,6.231,8.592,4.082,12.038,3.507"/>
	<path clip-path="url(#SVGID_2_)" fill="#3EE6FD" d="M12.271,3.805c10.852-1.81,21.584-1.833,32.195,0
		c3.393,0.586,5.618,2.714,6.271,5.9c2.075,10.094,2.043,20.19,0,30.284c-0.645,3.188-2.836,5.604-6.271,5.9
		c-10.61,0.917-21.343,0.905-32.195,0c-3.436-0.286-5.885-2.674-6.273-5.9C4.79,29.895,4.546,19.8,5.998,9.706
		C6.462,6.489,8.874,4.372,12.271,3.805"/>
	<path clip-path="url(#SVGID_2_)" fill="#25E2FD" d="M12.507,4.104c10.694-1.784,21.275-1.807,31.732,0
		c3.343,0.577,5.536,2.674,6.181,5.815c2.044,9.948,2.014,19.899,0,29.848c-0.636,3.143-2.796,5.523-6.181,5.815
		c-10.458,0.904-21.038,0.893-31.732,0c-3.387-0.281-5.801-2.635-6.183-5.815c-1.19-9.949-1.433-19.899,0-29.848
		C6.78,6.748,9.158,4.661,12.507,4.104"/>
	<path clip-path="url(#SVGID_2_)" fill="#00DEFD" d="M12.742,4.4c10.54-1.757,20.963-1.779,31.269,0
		c3.295,0.571,5.458,2.637,6.093,5.732c2.014,9.803,1.981,19.608,0,29.414c-0.627,3.096-2.757,5.441-6.093,5.73
		c-10.306,0.891-20.729,0.879-31.269,0c-3.338-0.277-5.719-2.599-6.094-5.73c-1.172-9.806-1.409-19.609,0-29.414
		C7.1,7.008,9.442,4.95,12.742,4.4"/>
	<path clip-path="url(#SVGID_2_)" fill="#00DBFD" d="M12.978,4.698c10.385-1.732,20.654-1.755,30.806,0
		c3.247,0.562,5.375,2.596,6.002,5.646c1.984,9.659,1.954,19.318,0,28.979c-0.616,3.051-2.714,5.362-6.002,5.646
		c-10.152,0.877-20.423,0.865-30.806,0c-3.288-0.275-5.632-2.56-6.002-5.646c-1.155-9.661-1.391-19.318,0-28.979
		C7.418,7.268,9.728,5.24,12.978,4.698"/>
	<path clip-path="url(#SVGID_2_)" fill="#00D7FD" d="M13.213,4.996c10.228-1.706,20.345-1.728,30.344,0
		c3.198,0.553,5.294,2.558,5.912,5.561c1.954,9.514,1.924,19.029,0,28.543c-0.608,3.005-2.673,5.282-5.912,5.562
		c-9.999,0.863-20.116,0.851-30.344,0c-3.239-0.271-5.547-2.523-5.912-5.562c-1.138-9.514-1.369-19.028,0-28.543
		C7.737,7.525,10.012,5.529,13.213,4.996"/>
	<path clip-path="url(#SVGID_2_)" fill="#00D3FD" d="M13.448,5.294c10.071-1.68,20.033-1.701,29.88,0
		c3.149,0.544,5.213,2.518,5.822,5.476c1.924,9.37,1.895,18.738,0,28.108c-0.6,2.959-2.632,5.201-5.822,5.476
		c-9.847,0.851-19.809,0.839-29.88,0c-3.19-0.266-5.463-2.482-5.822-5.476c-1.121-9.37-1.348-18.738,0-28.108
		C8.056,7.785,10.296,5.82,13.448,5.294"/>
	<path clip-path="url(#SVGID_2_)" fill="#FFFFFF" d="M28.498,0.537c-5.845,0-11.724,0.498-17.638,1.482
		C7.169,2.635,4.548,4.936,4.046,8.43C4.04,8.472,4.033,8.512,4.028,8.552C4.033,8.512,4.04,8.47,4.046,8.43
		c0.502-3.494,3.124-5.794,6.813-6.411C16.773,1.034,22.653,0.537,28.498,0.537c5.812-0.001,11.587,0.49,17.334,1.482
		c3.686,0.638,6.101,2.949,6.814,6.411c0.088,0.438,0.175,0.875,0.258,1.314c-0.083-0.438-0.167-0.876-0.258-1.314
		c-0.713-3.461-3.128-5.773-6.814-6.411C40.085,1.026,34.31,0.536,28.498,0.537 M4.025,8.583C4.021,8.614,4.014,8.645,4.01,8.676
		C4.016,8.645,4.021,8.614,4.025,8.583 M4.005,8.714C4.001,8.744,3.998,8.771,3.993,8.8C3.998,8.771,4.001,8.744,4.005,8.714
		 M3.986,8.843C3.985,8.87,3.98,8.897,3.976,8.924C3.98,8.897,3.985,8.87,3.986,8.843 M3.97,8.965
		C3.966,8.993,3.963,9.02,3.958,9.047C3.963,9.021,3.966,8.993,3.97,8.965 M3.953,9.092C3.949,9.12,3.946,9.146,3.942,9.172
		C3.946,9.146,3.949,9.12,3.953,9.092 M3.936,9.215C3.931,9.242,3.93,9.269,3.925,9.298C3.93,9.269,3.931,9.242,3.936,9.215
		 M3.919,9.34C3.915,9.37,3.91,9.403,3.906,9.433C3.91,9.403,3.915,9.372,3.919,9.34 M3.902,9.461
		C3.898,9.5,3.894,9.537,3.887,9.575C3.894,9.537,3.898,9.499,3.902,9.461 M3.883,9.605C3.879,9.64,3.875,9.674,3.87,9.708
		C3.875,9.674,3.879,9.64,3.883,9.605 M3.864,9.752c-0.002,0.024-0.007,0.05-0.009,0.075C3.857,9.802,3.862,9.777,3.864,9.752
		 M3.847,9.893C3.844,9.911,3.843,9.929,3.838,9.947C3.843,9.929,3.844,9.912,3.847,9.893 M3.83,10.021
		c-0.001,0.014-0.004,0.028-0.006,0.042C3.826,10.048,3.828,10.036,3.83,10.021 M3.812,10.146c0,0.011-0.002,0.023-0.004,0.036
		C3.811,10.169,3.812,10.156,3.812,10.146 M3.798,10.269c0,0.009-0.002,0.019-0.002,0.028C3.796,10.287,3.798,10.278,3.798,10.269
		 M3.783,10.387c0,0.01-0.003,0.019-0.003,0.027C3.78,10.405,3.783,10.396,3.783,10.387"/>
	<path clip-path="url(#SVGID_2_)" fill="#F0F0F0" d="M52.904,9.744c0.79,4.184,1.246,8.369,1.377,12.553
		C54.152,18.113,53.694,13.928,52.904,9.744 M54.283,22.351v0.05V22.351"/>
	<path clip-path="url(#SVGID_2_)" fill="#BFFDFF" d="M28.498,0.537c-5.845,0-11.724,0.497-17.638,1.483
		C7.17,2.636,4.548,4.936,4.046,8.43C4.04,8.471,4.033,8.512,4.029,8.553c-0.002,0.009-0.004,0.02-0.004,0.029
		C4.02,8.614,4.017,8.645,4.01,8.676c0,0.013-0.002,0.025-0.004,0.039C4.001,8.743,3.997,8.771,3.992,8.8
		C3.991,8.813,3.989,8.83,3.986,8.843C3.985,8.87,3.98,8.897,3.977,8.924C3.973,8.938,3.972,8.952,3.969,8.965
		c-0.004,0.028-0.006,0.056-0.01,0.083c-0.001,0.014-0.004,0.03-0.006,0.044C3.949,9.12,3.946,9.146,3.942,9.172
		C3.94,9.187,3.937,9.201,3.936,9.215C3.931,9.242,3.93,9.27,3.925,9.298C3.923,9.311,3.921,9.326,3.918,9.34
		C3.914,9.372,3.91,9.403,3.906,9.434c0,0.009-0.001,0.019-0.005,0.027C3.898,9.498,3.894,9.537,3.887,9.575
		c0,0.01-0.002,0.019-0.004,0.029c-0.005,0.035-0.009,0.07-0.012,0.104c-0.003,0.015-0.005,0.03-0.007,0.044
		c-0.001,0.024-0.006,0.05-0.008,0.075C3.851,9.849,3.849,9.871,3.847,9.893c-0.002,0.02-0.004,0.036-0.008,0.054
		C3.836,9.972,3.832,9.996,3.83,10.021c-0.002,0.013-0.004,0.027-0.007,0.042c-0.001,0.027-0.006,0.055-0.01,0.082
		c0,0.01-0.002,0.024-0.004,0.035c-0.001,0.03-0.006,0.06-0.01,0.088c0,0.009-0.003,0.018-0.003,0.028
		c-0.003,0.03-0.008,0.06-0.012,0.09c0,0.008-0.003,0.019-0.003,0.028c-0.53,4.27-0.786,8.541-0.818,12.811
		c0.113,0.107,0.225,0.214,0.34,0.318c0.023-4.967,0.355-9.935,1.07-14.901c0.496-3.448,3.082-5.719,6.724-6.326
		C16.928,1.343,22.731,0.854,28.5,0.854c5.733,0,11.434,0.484,17.104,1.463c3.637,0.63,6.021,2.91,6.723,6.326
		c0.997,4.849,1.539,9.699,1.639,14.549c0.114,0.042,0.226,0.084,0.342,0.128c-0.007-0.307-0.013-0.613-0.024-0.919v-0.05
		c-0.002-0.018-0.002-0.036-0.002-0.054c-0.132-4.183-0.587-8.368-1.377-12.552c-0.083-0.439-0.17-0.876-0.258-1.314
		c-0.713-3.461-3.129-5.773-6.814-6.41C40.085,1.026,34.309,0.536,28.498,0.537"/>
	<path clip-path="url(#SVGID_2_)" fill="#B5F9FF" d="M28.5,0.854c-5.769,0-11.572,0.491-17.405,1.463
		C7.454,2.924,4.868,5.195,4.373,8.642c-0.714,4.967-1.047,9.935-1.071,14.902c0.112,0.104,0.225,0.206,0.337,0.304
		c0.012-4.998,0.34-9.996,1.058-14.994c0.489-3.4,3.041-5.64,6.633-6.239c5.756-0.96,11.481-1.444,17.173-1.444
		c5.656,0,11.281,0.478,16.872,1.444c3.591,0.62,5.943,2.87,6.634,6.239c0.973,4.737,1.509,9.474,1.612,14.211
		c0.115,0.042,0.229,0.083,0.344,0.126c-0.1-4.85-0.642-9.7-1.638-14.55c-0.702-3.416-3.086-5.696-6.722-6.325
		C39.934,1.337,34.233,0.854,28.5,0.854"/>
	<path clip-path="url(#SVGID_2_)" fill="#ABF9FF" d="M28.502,1.17c-5.691,0-11.416,0.485-17.172,1.444
		c-3.593,0.6-6.145,2.839-6.634,6.24c-0.719,4.999-1.045,9.997-1.058,14.994c0.115,0.1,0.228,0.199,0.342,0.295
		c0-5.026,0.319-10.051,1.042-15.076c0.484-3.354,3.002-5.563,6.543-6.155c5.681-0.947,11.329-1.425,16.943-1.425
		c5.579,0,11.125,0.471,16.64,1.425c3.542,0.612,5.861,2.83,6.545,6.155c0.949,4.626,1.476,9.252,1.587,13.877
		c0.112,0.04,0.227,0.079,0.341,0.121c-0.104-4.737-0.64-9.476-1.613-14.212c-0.691-3.37-3.043-5.619-6.634-6.24
		C39.784,1.648,34.159,1.17,28.502,1.17"/>
	<path clip-path="url(#SVGID_2_)" fill="#A1F5FF" d="M28.509,1.487c-5.614,0-11.263,0.479-16.943,1.424
		C8.024,3.503,5.507,5.713,5.023,9.067C4.3,14.093,3.98,19.118,3.98,24.144c0.113,0.096,0.227,0.188,0.339,0.281
		C4.309,19.376,4.623,14.329,5.349,9.28c0.478-3.308,2.958-5.488,6.452-6.07c5.6-0.935,11.17-1.406,16.708-1.406
		c5.502,0,10.972,0.465,16.413,1.406c3.491,0.604,5.78,2.792,6.454,6.07c0.926,4.516,1.446,9.032,1.562,13.549
		c0.115,0.038,0.229,0.076,0.343,0.116c-0.113-4.626-0.638-9.252-1.588-13.878c-0.684-3.325-3.002-5.543-6.544-6.156
		C39.634,1.958,34.087,1.487,28.509,1.487"/>
	<path clip-path="url(#SVGID_2_)" fill="#97F2FF" d="M28.509,1.804c-5.538,0-11.108,0.472-16.708,1.406
		C8.308,3.793,5.827,5.972,5.349,9.281c-0.727,5.048-1.041,10.096-1.03,15.144c0.114,0.092,0.229,0.182,0.341,0.27
		C4.637,19.628,4.944,14.561,5.673,9.494c0.471-3.263,2.919-5.411,6.365-5.985c5.521-0.922,11.013-1.387,16.473-1.388
		c5.425,0,10.82,0.46,16.184,1.388c3.442,0.594,5.699,2.752,6.362,5.985c0.905,4.409,1.413,8.816,1.537,13.225
		c0.114,0.036,0.229,0.073,0.343,0.112c-0.116-4.517-0.636-9.034-1.562-13.55c-0.674-3.279-2.963-5.468-6.454-6.071
		C39.481,2.27,34.011,1.804,28.509,1.804"/>
	<path clip-path="url(#SVGID_2_)" fill="#8DF1FF" d="M28.511,2.121c-5.459,0.001-10.952,0.466-16.472,1.387
		C8.592,4.083,6.144,6.231,5.673,9.493C4.944,14.56,4.637,19.628,4.661,24.695c0.114,0.087,0.227,0.174,0.341,0.256
		C4.966,19.87,5.267,14.787,5.998,9.706c0.465-3.216,2.877-5.333,6.274-5.9c5.442-0.907,10.858-1.366,16.241-1.366
		c5.347,0,10.665,0.453,15.953,1.366c3.393,0.586,5.618,2.714,6.271,5.9c0.883,4.302,1.386,8.604,1.513,12.906
		c0.114,0.035,0.227,0.071,0.343,0.107c-0.123-4.409-0.631-8.816-1.537-13.226c-0.663-3.232-2.92-5.389-6.362-5.985
		C39.331,2.581,33.937,2.121,28.511,2.121"/>
	<path clip-path="url(#SVGID_2_)" fill="#85EDFD" d="M28.513,2.439c-5.383,0-10.798,0.458-16.241,1.366
		c-3.397,0.567-5.81,2.684-6.273,5.9C5.266,14.787,4.966,19.87,5.001,24.952c0.113,0.084,0.227,0.166,0.342,0.247
		c-0.047-5.094,0.248-10.187,0.98-15.28c0.457-3.17,2.834-5.258,6.183-5.816c5.365-0.895,10.7-1.346,16.004-1.346
		c5.273,0,10.517,0.445,15.729,1.346c3.342,0.577,5.536,2.675,6.18,5.816c0.863,4.197,1.356,8.394,1.486,12.591
		c0.114,0.033,0.23,0.067,0.345,0.102c-0.127-4.302-0.629-8.604-1.513-12.906c-0.653-3.186-2.878-5.315-6.271-5.9
		C39.178,2.892,33.86,2.439,28.513,2.439"/>
	<path clip-path="url(#SVGID_2_)" fill="#7BEAFD" d="M28.511,2.756c-5.305,0-10.64,0.452-16.004,1.347
		C9.157,4.661,6.78,6.748,6.324,9.919c-0.733,5.093-1.028,10.186-0.981,15.28c0.114,0.079,0.229,0.158,0.343,0.235
		c-0.06-5.101,0.229-10.202,0.963-15.302C7.1,7.008,9.442,4.95,12.742,4.4c5.287-0.881,10.544-1.326,15.771-1.326
		c5.195,0,10.36,0.439,15.497,1.326c3.296,0.571,5.458,2.637,6.094,5.732c0.841,4.092,1.324,8.186,1.46,12.279
		c0.114,0.032,0.226,0.064,0.341,0.098c-0.129-4.196-0.623-8.393-1.485-12.59c-0.645-3.142-2.838-5.238-6.181-5.815
		C39.027,3.202,33.784,2.756,28.511,2.756"/>
	<path clip-path="url(#SVGID_2_)" fill="#70E8FD" d="M28.513,3.074c-5.226,0-10.485,0.445-15.771,1.326
		c-3.3,0.55-5.642,2.608-6.094,5.731c-0.733,5.101-1.021,10.202-0.962,15.303c0.114,0.076,0.226,0.15,0.341,0.223
		C5.96,20.553,6.24,15.45,6.975,10.344c0.443-3.078,2.753-5.104,6.002-5.646c5.21-0.87,10.39-1.309,15.54-1.309
		c5.119,0,10.206,0.434,15.267,1.309c3.247,0.561,5.375,2.597,6.002,5.646c0.82,3.99,1.294,7.982,1.435,11.974
		c0.114,0.031,0.229,0.062,0.343,0.093c-0.135-4.093-0.619-8.187-1.46-12.28C49.468,7.037,47.306,4.971,44.01,4.4
		C38.873,3.513,33.708,3.073,28.513,3.074"/>
	<path clip-path="url(#SVGID_2_)" fill="#63E4FD" d="M28.517,3.391c-5.15,0-10.33,0.438-15.54,1.308
		C9.729,5.24,7.418,7.268,6.975,10.345C6.24,15.45,5.96,20.553,6.027,25.658c0.116,0.072,0.231,0.144,0.346,0.212
		c-0.081-5.104,0.192-10.209,0.928-15.313c0.437-3.031,2.711-5.027,5.912-5.561c5.13-0.855,10.232-1.287,15.307-1.287
		c5.042,0,10.054,0.425,15.038,1.287c3.198,0.553,5.294,2.558,5.911,5.561c0.799,3.891,1.267,7.782,1.407,11.672
		c0.114,0.029,0.23,0.059,0.345,0.088c-0.139-3.991-0.614-7.982-1.435-11.973c-0.627-3.05-2.755-5.085-6.002-5.646
		C38.723,3.824,33.636,3.391,28.517,3.391"/>
	<path clip-path="url(#SVGID_2_)" fill="#56E2FD" d="M28.519,3.708c-5.074,0-10.175,0.432-15.307,1.287
		c-3.2,0.534-5.475,2.529-5.911,5.561C6.566,15.661,6.292,20.766,6.373,25.87c0.113,0.069,0.228,0.135,0.342,0.201
		c-0.089-5.1,0.178-10.201,0.912-15.3c0.43-2.984,2.67-4.95,5.822-5.476C18.5,4.452,23.523,4.027,28.521,4.027
		c4.964,0,9.898,0.419,14.807,1.267c3.15,0.543,5.214,2.518,5.823,5.476c0.778,3.791,1.238,7.583,1.381,11.375
		c0.114,0.027,0.229,0.055,0.343,0.085c-0.14-3.892-0.608-7.783-1.407-11.673c-0.617-3.003-2.713-5.009-5.912-5.561
		C38.574,4.135,33.561,3.708,28.519,3.708"/>
	<path clip-path="url(#SVGID_2_)" fill="#48DFFD" d="M28.521,4.027c-4.997,0-10.021,0.425-15.074,1.267
		C10.296,5.82,8.056,7.785,7.626,10.77c-0.734,5.1-1,10.2-0.912,15.299c1.439,0.819,2.885,1.346,4.343,1.642
		c-0.668-0.435-1.104-1.158-1.107-1.984v-3.89c0.005-1.335,1.145-2.407,2.564-2.412h2.067c0.261-0.781,0.589-1.536,0.979-2.254
		l-1.492-1.405c-0.502-0.469-0.757-1.097-0.754-1.708c-0.002-0.612,0.252-1.239,0.75-1.705l2.921-2.748
		c0.497-0.471,1.161-0.708,1.807-0.708h0.008h0.007c0.648,0,1.31,0.239,1.806,0.705l1.462,1.376
		c0.762-0.375,1.561-0.692,2.389-0.945v-1.99c0.001-1.333,1.14-2.41,2.562-2.414h4.135c1.42,0.006,2.556,1.076,2.562,2.414v1.944
		c0.833,0.244,1.635,0.552,2.399,0.921l1.495-1.409c0.497-0.469,1.161-0.706,1.807-0.706h0.009h0.004c0.649,0,1.31,0.237,1.81,0.705
		l2.923,2.751c0.498,0.469,0.75,1.094,0.748,1.706c0.002,0.61-0.25,1.234-0.748,1.704l-1.465,1.376
		c0.399,0.714,0.736,1.465,1.005,2.245h2.118c1.417,0.004,2.56,1.075,2.564,2.411v0.03c0.706,0.112,1.418,0.251,2.139,0.424
		c-0.145-3.792-0.604-7.585-1.382-11.375c-0.608-2.958-2.673-4.932-5.822-5.476C38.418,4.445,33.485,4.027,28.521,4.027
		 M29.172,19.75c-2.323,0.003-4.205,1.774-4.209,3.959c0.002,0.679,0.184,1.316,0.504,1.875c0.865-0.29,1.736-0.59,2.62-0.889
		c1.702-0.577,3.444-1.154,5.233-1.661C32.977,21.172,31.251,19.754,29.172,19.75"/>
	<path clip-path="url(#SVGID_2_)" fill="#FFFFFF" d="M10.477,3.521c2.545,0,4.61,1.942,4.61,4.337c0,2.395-2.064,4.336-4.61,4.336
		c-2.547,0-4.612-1.941-4.612-4.336C5.865,5.463,7.929,3.521,10.477,3.521"/>
	<path clip-path="url(#SVGID_2_)" fill="#FFFFFF" d="M17.525,1.678c1.266,0,2.293,0.965,2.293,2.156
		c0,1.192-1.028,2.157-2.293,2.157c-1.268,0-2.293-0.965-2.293-2.157C15.232,2.643,16.258,1.678,17.525,1.678"/>
	<path clip-path="url(#SVGID_2_)" fill="#FFFFFF" d="M46.903,41.525c1.52,0,2.751,1.159,2.751,2.587c0,1.43-1.231,2.59-2.751,2.59
		c-1.521,0-2.753-1.16-2.753-2.59C44.15,42.684,45.382,41.525,46.903,41.525"/>
	<path clip-path="url(#SVGID_2_)" fill="#00BBE0" d="M29.172,18.282v1.468c2.323,0.003,4.205,1.773,4.21,3.958
		c-0.005,2.187-1.887,3.956-4.21,3.96c-2.323-0.004-4.205-1.773-4.209-3.96c0.004-2.185,1.886-3.955,4.209-3.958V18.282v-1.467
		c-4.048,0-7.329,3.086-7.329,6.894c0,3.81,3.28,6.896,7.329,6.896c4.048,0,7.33-3.086,7.33-6.896c0-3.808-3.282-6.894-7.33-6.894
		V18.282z M32.165,11.112l-0.339,1.432c1.346,0.282,2.605,0.772,3.741,1.435l1.052,0.613l3.208-3.019L39.435,11.2v0.528l0.396-0.156
		L39.435,11.2v0.528v-0.521l-0.393,0.368l0.393,0.153v-0.521l-0.393,0.368l2.921,2.749l0.392-0.371h-0.555l0.164,0.37l0.392-0.37
		h-0.555h0.555l-0.394-0.369l-0.161,0.369h0.555l-0.394-0.369l-3.192,3.004l0.67,0.992c0.718,1.065,1.254,2.243,1.571,3.504
		l0.284,1.132h4.535v-0.524h-0.555c0.004,0.297,0.243,0.52,0.555,0.524v-0.524h-0.555v3.89h0.555v-0.525
		c-0.313,0.005-0.551,0.226-0.555,0.525h0.555v-0.525h-4.514l-0.274,1.149c-0.299,1.265-0.82,2.45-1.525,3.521l-0.651,0.988
		l3.207,3.019l0.396-0.37h-0.559l0.165,0.371l0.394-0.371h-0.559h0.559l-0.394-0.372l-0.165,0.372h0.559l-0.394-0.372l-2.925,2.752
		l0.397,0.371v-0.525l-0.395,0.154l0.395,0.371v-0.525v0.525l0.394-0.371l-0.394-0.154v0.525l0.394-0.371l-3.196-3.007l-1.056,0.633
		c-1.13,0.675-2.385,1.18-3.724,1.476l-1.204,0.266v4.268h0.558v-0.522c-0.315,0.003-0.556,0.23-0.558,0.522h0.558v-0.522h-4.135
		v0.522h0.555c-0.005-0.295-0.242-0.519-0.555-0.522v0.522h0.555v-4.247l-1.219-0.256c-1.346-0.283-2.605-0.774-3.745-1.436
		l-1.051-0.612l-3.208,3.018l0.394,0.371V35.69l-0.394,0.156l0.394,0.37V35.69v0.522l0.393-0.369l-0.393-0.153v0.522l0.393-0.369
		l-2.921-2.747l-0.396,0.369h0.558l-0.163-0.371l-0.395,0.371h0.558h-0.558l0.395,0.373l0.163-0.373h-0.558l0.395,0.373l3.198-3.007
		l-0.674-0.994c-0.718-1.062-1.253-2.24-1.569-3.502l-0.284-1.132h-4.535v0.524h0.555c-0.005-0.297-0.244-0.521-0.555-0.524v0.524
		h0.555v-3.89h-0.555v0.523c0.313-0.004,0.55-0.227,0.555-0.523h-0.555v0.523h4.514l0.271-1.147
		c0.301-1.265,0.822-2.452,1.528-3.522l0.65-0.987l-3.208-3.018l-0.398,0.371h0.561l-0.166-0.374l-0.395,0.374h0.561h-0.558
		l0.394,0.371l0.164-0.371h-0.558l0.394,0.371l2.925-2.752l-0.396-0.374l0.002,0.528l0.396-0.155l-0.398-0.373l0.002,0.528v-0.528
		l-0.396,0.373l0.396,0.155v-0.528l-0.396,0.373l3.196,3.006l1.055-0.631c1.128-0.675,2.385-1.18,3.726-1.477l1.202-0.267V8.041
		h-0.558v0.524c0.316-0.004,0.555-0.232,0.558-0.524h-0.558v0.524h4.135V8.041h-0.558c0.007,0.297,0.24,0.518,0.558,0.524V8.041
		h-0.558v4.249l1.221,0.255L32.165,11.112h1.56V8.041c-0.007-1.335-1.143-2.407-2.563-2.412h-4.135
		c-1.422,0.003-2.56,1.08-2.562,2.412v3.104h1.559l-0.358-1.43c-1.685,0.373-3.264,1.008-4.684,1.856l0.837,1.239l1.102-1.039
		L20.613,9.6c-0.497-0.468-1.164-0.707-1.812-0.705c-0.65-0.002-1.316,0.236-1.816,0.708l-2.921,2.749
		c-0.499,0.467-0.752,1.093-0.75,1.706c-0.001,0.612,0.252,1.239,0.755,1.708l2.33,2.192l1.104-1.037l-1.327-0.773
		c-0.886,1.344-1.54,2.835-1.919,4.426l1.524,0.32v-1.469h-3.264c-1.42,0.005-2.561,1.078-2.564,2.413v3.89
		c0.004,1.336,1.146,2.408,2.564,2.412h3.299v-1.468l-1.519,0.335c0.396,1.585,1.07,3.072,1.975,4.407l1.316-0.788l-1.104-1.039
		l-2.31,2.173c-0.499,0.466-0.753,1.093-0.75,1.705c-0.002,0.613,0.252,1.24,0.752,1.707l2.921,2.749
		c0.5,0.47,1.166,0.708,1.814,0.705c0.651,0.002,1.317-0.235,1.814-0.706l2.334-2.196l-1.104-1.038l-0.82,1.248
		c1.429,0.833,3.014,1.451,4.704,1.806l0.341-1.432h-1.56v3.07c0.004,1.336,1.145,2.408,2.564,2.413h4.135
		c1.423-0.004,2.56-1.083,2.562-2.413v-3.104h-1.56l0.356,1.43c1.687-0.374,3.268-1.01,4.686-1.859l-0.837-1.238l-1.104,1.038
		l2.311,2.174c0.5,0.47,1.164,0.706,1.814,0.705c0.648,0,1.312-0.235,1.812-0.705l2.923-2.752c0.497-0.467,0.752-1.093,0.75-1.705
		c0.001-0.613-0.253-1.24-0.753-1.708l-2.331-2.194l-1.104,1.038l1.327,0.772c0.884-1.344,1.541-2.836,1.92-4.425l-1.524-0.32v1.468
		h3.264c1.42-0.006,2.561-1.077,2.564-2.412v-3.89c-0.004-1.337-1.146-2.408-2.564-2.411h-3.3v1.468l1.519-0.337
		c-0.398-1.587-1.072-3.07-1.973-4.404l-1.318,0.786l1.105,1.038l2.31-2.173c0.498-0.469,0.75-1.095,0.749-1.705
		c0.001-0.611-0.25-1.235-0.749-1.704l-2.923-2.752c-0.5-0.469-1.166-0.708-1.814-0.706c-0.65-0.002-1.316,0.237-1.816,0.708
		l-2.331,2.194l1.101,1.038l0.823-1.248c-1.429-0.832-3.014-1.45-4.707-1.804L32.165,11.112h1.56H32.165z"/>
	<path clip-path="url(#SVGID_2_)" fill="#FFFFFF" d="M29.172,40.323h-1.99c-0.553,0-1.005-0.424-1.005-0.945v-3.07
		c-1.518-0.319-2.94-0.874-4.224-1.622l-2.333,2.197c-0.39,0.368-1.027,0.368-1.42,0l-2.922-2.75c-0.393-0.368-0.393-0.967,0-1.335
		l2.31-2.172c-0.812-1.198-1.416-2.531-1.772-3.954h-3.299c-0.553,0-1.005-0.424-1.005-0.944v-3.89c0-0.52,0.452-0.944,1.005-0.944
		h3.264c0.338-1.428,0.927-2.767,1.723-3.974l-2.333-2.196c-0.392-0.368-0.392-0.967,0-1.335l2.922-2.75
		c0.39-0.368,1.028-0.368,1.418,0l2.311,2.171c1.274-0.761,2.691-1.331,4.205-1.666V8.041c0-0.519,0.449-0.944,1.002-0.944h2.145
		v11.186c-3.185,0-5.77,2.431-5.77,5.427c0,2.999,2.584,5.428,5.77,5.428V40.323z M32.165,11.112
		c1.519,0.317,2.942,0.872,4.223,1.619l2.337-2.196c0.389-0.367,1.027-0.367,1.42,0l2.922,2.75c0.39,0.368,0.39,0.967,0,1.334
		l-2.311,2.173c0.81,1.199,1.417,2.531,1.772,3.955h3.3c0.554,0,1.005,0.423,1.005,0.943v3.89c0,0.519-0.452,0.944-1.005,0.944
		h-3.264c-0.339,1.428-0.928,2.766-1.723,3.973l2.334,2.196c0.392,0.367,0.392,0.967,0,1.334l-2.923,2.751
		c-0.39,0.366-1.028,0.366-1.417,0l-2.311-2.174c-1.273,0.762-2.692,1.332-4.205,1.667v3.104c0,0.521-0.449,0.945-1.002,0.945
		h-2.145V29.137c3.186,0,5.769-2.43,5.769-5.428c0-2.996-2.583-5.427-5.769-5.427V7.097h1.99c0.551,0,1.003,0.425,1.003,0.944
		V11.112z"/>
	<path clip-path="url(#SVGID_2_)" fill="#00ACCF" d="M29.172,17.043v1.239c-1.376,0-2.64,0.452-3.631,1.209
		c0.991-0.755,2.255-1.208,3.631-1.208c2.711,0,4.982,1.757,5.602,4.128V22.41c-0.619-2.37-2.894-4.127-5.602-4.127V17.043z
		 M25.539,19.494c-0.006,0.004-0.013,0.009-0.019,0.014C25.526,19.503,25.533,19.499,25.539,19.494 M25.514,19.514
		c-0.007,0.004-0.013,0.009-0.018,0.013C25.501,19.523,25.507,19.518,25.514,19.514 M25.488,19.532
		c-0.006,0.004-0.01,0.009-0.015,0.013C25.478,19.542,25.484,19.536,25.488,19.532 M25.46,19.556
		c-0.006,0.003-0.01,0.007-0.017,0.012C25.451,19.563,25.455,19.559,25.46,19.556 M25.424,19.584
		c-0.001,0.002-0.004,0.003-0.006,0.005C25.42,19.587,25.423,19.586,25.424,19.584 M25.4,19.604c-0.003,0-0.004,0.002-0.007,0.005
		C25.396,19.607,25.397,19.605,25.4,19.604 M25.374,19.625c-0.001,0.001-0.004,0.002-0.006,0.004
		C25.37,19.628,25.372,19.626,25.374,19.625 M25.346,19.648c-0.001,0-0.001,0.001-0.001,0.001S25.345,19.648,25.346,19.648
		 M24.81,20.156c0,0.002,0,0.003-0.001,0.003C24.81,20.159,24.81,20.158,24.81,20.156 M24.79,20.18l-0.002,0.003L24.79,20.18z
		 M24.742,20.231c0,0.002-0.002,0.004-0.004,0.006C24.74,20.235,24.742,20.234,24.742,20.231 M24.723,20.254
		c-0.004,0.003-0.006,0.008-0.01,0.012C24.717,20.262,24.719,20.257,24.723,20.254 M24.704,20.277
		c-0.004,0.003-0.008,0.009-0.013,0.013C24.696,20.286,24.7,20.281,24.704,20.277 M24.686,20.298
		c-0.004,0.006-0.012,0.012-0.015,0.017C24.674,20.311,24.681,20.304,24.686,20.298 M24.666,20.319
		c-0.512,0.604-0.894,1.314-1.095,2.088v0.003C23.771,21.635,24.153,20.924,24.666,20.319 M42.548,26.595
		c-0.002,0.01-0.004,0.021-0.006,0.03C42.544,26.616,42.545,26.605,42.548,26.595 M42.531,26.664
		c-0.004,0.015-0.006,0.029-0.01,0.044C42.525,26.693,42.526,26.678,42.531,26.664 M15.815,26.67
		c0.194,0.785,0.468,1.542,0.807,2.264v-0.001C16.284,28.211,16.013,27.456,15.815,26.67 M42.514,26.73
		c-0.004,0.018-0.008,0.037-0.012,0.055C42.506,26.767,42.509,26.749,42.514,26.73 M42.498,26.795
		c-0.181,0.688-0.418,1.355-0.71,1.995v0C42.08,28.151,42.317,27.485,42.498,26.795 M42.506,32.064L42.506,32.064l0.669,0.63
		c0.194,0.184,0.294,0.426,0.294,0.668c0-0.242-0.1-0.484-0.294-0.668L42.506,32.064z M15.277,32.798L15.277,32.798
		c-0.195,0.183-0.294,0.425-0.294,0.668C14.982,33.223,15.082,32.981,15.277,32.798 M36.524,34.607
		c-1.273,0.763-2.691,1.333-4.205,1.667C33.834,35.94,35.25,35.37,36.524,34.607 M21.953,34.687l-2.333,2.196l2.336-2.195
		C21.953,34.688,21.953,34.687,21.953,34.687"/>
	<path clip-path="url(#SVGID_2_)" fill="#EAEAEA" d="M28.941,17.04c-3.186,0-5.539,2.352-5.539,4.073
		c0,1.719,0.058,0.886,0.167,1.296c0.202-0.775,0.583-1.484,1.096-2.088c0.001-0.002,0.004-0.004,0.004-0.004
		c0.004-0.007,0.01-0.013,0.015-0.017c0.002-0.003,0.004-0.007,0.006-0.009c0.004-0.004,0.008-0.008,0.012-0.013
		c0.003-0.005,0.007-0.008,0.009-0.012c0.004-0.003,0.006-0.007,0.01-0.011c0.005-0.005,0.011-0.01,0.016-0.017
		c0.001-0.002,0.004-0.004,0.004-0.006c0.015-0.016,0.029-0.032,0.044-0.048l0.002-0.003c0.006-0.007,0.013-0.015,0.019-0.022
		c0.001,0,0.001-0.001,0.001-0.001c0.168-0.18,0.346-0.35,0.535-0.508c0,0,0-0.001,0.002-0.001c0.006-0.006,0.015-0.013,0.021-0.019
		c0.002-0.001,0.005-0.003,0.007-0.005c0.006-0.005,0.012-0.01,0.019-0.015c0.001-0.002,0.004-0.004,0.006-0.005
		c0.006-0.005,0.013-0.01,0.019-0.015c0.003-0.002,0.004-0.004,0.007-0.006c0.006-0.005,0.012-0.011,0.019-0.016
		c0.006-0.003,0.01-0.007,0.016-0.013c0.004-0.002,0.009-0.007,0.013-0.009c0.004-0.004,0.009-0.009,0.015-0.013
		c0.002-0.002,0.005-0.004,0.009-0.006c0.004-0.004,0.011-0.01,0.017-0.013c0.003-0.002,0.004-0.003,0.007-0.005
		c0.006-0.005,0.012-0.01,0.019-0.014c0-0.001,0.002-0.002,0.002-0.003c0.992-0.756,2.255-1.209,3.631-1.209v-1.239
		C29.095,17.041,29.017,17.04,28.941,17.04 M29.172,17.043v1.239c2.709,0,4.982,1.757,5.602,4.127
		c0.107-0.413,0.167,0.423,0.167-1.297C34.941,19.433,32.264,17.152,29.172,17.043 M46.833,23.01
		c-0.015,0.508-0.459,0.918-1.004,0.918h-3.264c-0.608,2.57-0.697,3.345-0.778,4.862c0.292-0.64,0.53-1.306,0.71-1.995
		c0.001-0.004,0.001-0.008,0.004-0.011c0.004-0.018,0.008-0.037,0.013-0.055c0.002-0.007,0.004-0.015,0.006-0.022
		c0.004-0.016,0.006-0.03,0.012-0.043c0.003-0.014,0.006-0.027,0.01-0.04c0.002-0.01,0.004-0.02,0.006-0.029
		c0.007-0.023,0.011-0.048,0.017-0.07h3.264c0.553,0,1.004-0.425,1.004-0.944V23.01z M11.51,23.155v2.572
		c0,0.519,0.452,0.944,1.004,0.944h3.301c0.197,0.784,0.468,1.54,0.807,2.261c-0.138-1.518-0.157-2.259-0.807-4.858h-3.301
		C11.97,24.074,11.525,23.664,11.51,23.155 M36.525,32.011c-1.274,0.762-2.69,1.333-4.206,1.666v2.598
		c1.514-0.335,2.932-0.905,4.206-1.667l2.309,2.174c0.196,0.183,0.452,0.275,0.71,0.275c0.256,0,0.513-0.092,0.708-0.275
		l2.922-2.751c0.195-0.184,0.295-0.426,0.295-0.668c0-0.241-0.1-0.483-0.295-0.667l-0.67-0.632l-2.252,2.121
		c-0.195,0.185-0.452,0.275-0.708,0.275c-0.258,0-0.515-0.09-0.71-0.275L36.525,32.011z M21.955,32.091l-2.335,2.195
		c-0.195,0.184-0.452,0.277-0.71,0.277c-0.256,0-0.513-0.093-0.709-0.277l-2.251-2.119l-0.671,0.63
		c-0.195,0.183-0.295,0.426-0.295,0.667c0,0.243,0.1,0.484,0.295,0.667l2.923,2.75c0.197,0.184,0.453,0.276,0.709,0.276
		c0.258,0,0.515-0.092,0.71-0.276l2.333-2.197c0,0,0,0.001,0.002,0.001v-0.001c1.283,0.748,2.705,1.303,4.222,1.621V33.71
		C24.66,33.393,23.238,32.839,21.955,32.091 M32.319,36.807c-0.015,0.508-0.457,0.919-1.001,0.919h-2.145v2.597h2.145
		c0.552,0,1.001-0.424,1.001-0.945V36.807z M26.177,36.807v2.571c0,0.521,0.452,0.945,1.004,0.945h1.991v-2.597h-1.991
		C26.639,37.726,26.192,37.315,26.177,36.807"/>
</g>
</svg>
