<?xml version="1.0" encoding="utf-8"?>
<!-- Generator: Adobe Illustrator 16.0.0, SVG Export Plug-In . SVG Version: 6.00 Build 0)  -->
<!DOCTYPE svg PUBLIC "-//W3C//DTD SVG 1.1//EN" "http://www.w3.org/Graphics/SVG/1.1/DTD/svg11.dtd">
<svg version="1.1" id="Ebene_1" xmlns="http://www.w3.org/2000/svg" xmlns:xlink="http://www.w3.org/1999/xlink" x="0px" y="0px"
	 width="98.5px" height="98.5px" viewBox="0 0 98.5 98.5" enable-background="new 0 0 98.5 98.5" xml:space="preserve">
<g>
	<rect fill="#F89E58" width="98.5" height="98.5"/>
	<rect x="9.85" y="9.85" fill="#D76D42" width="78.8" height="78.8"/>
</g>
<g>
	<path fill="#6E4D65" d="M67.683,16.41l-7.548-4.919c-0.625-0.409-1.465-0.233-1.875,0.394l-9.098,13.963
		c-0.408,0.626-0.229,1.467,0.396,1.874l7.551,4.919c0.624,0.407,1.464,0.232,1.874-0.396l9.096-13.961
		C68.486,17.657,68.31,16.817,67.683,16.41z"/>
	<path fill="#54374C" d="M64.082,15.895l-2.215-1.444c-0.25-0.162-0.586-0.092-0.749,0.159c-0.164,0.25-0.093,0.586,0.16,0.75
		l2.212,1.444c0.251,0.159,0.586,0.09,0.748-0.161C64.403,16.394,64.331,16.058,64.082,15.895z"/>
	<circle fill="#54374C" cx="54.087" cy="28.814" r="0.609"/>
	
		<rect x="53.57" y="15.785" transform="matrix(0.8378 0.546 -0.546 0.8378 21.6272 -28.2425)" fill="#D1D3D4" width="9.551" height="12.985"/>
	<polygon opacity="0.2" fill="#FFFFFF" points="58.805,30.322 64.018,22.321 50.801,25.11 	"/>
</g>
<g>
	<circle fill="#73D6D9" cx="34.329" cy="19.442" r="8.06"/>
	<path fill="#FEC92F" d="M27.585,20.546c-0.609-3.716,1.919-7.238,5.639-7.847c3.718-0.609,7.238,1.921,7.847,5.638
		c0.609,3.72-1.919,7.239-5.637,7.849C31.714,26.795,28.195,24.266,27.585,20.546z"/>
	<path fill="#D1D3D4" d="M28.649,21.312c-0.609-3.718,1.921-7.238,5.641-7.847c1.626-0.267,3.213,0.067,4.537,0.838
		c-1.483-1.297-3.511-1.946-5.603-1.604c-3.719,0.609-6.248,4.131-5.639,7.847c0.343,2.093,1.605,3.808,3.308,4.8
		C29.741,24.337,28.916,22.939,28.649,21.312z"/>
	<path fill="#FEAD27" d="M29.604,20.215c-0.427-2.604,1.345-5.071,3.95-5.498c2.606-0.427,5.072,1.346,5.499,3.95
		c0.427,2.605-1.345,5.073-3.951,5.5C32.498,24.594,30.031,22.821,29.604,20.215z"/>
	<circle fill="#FEC92F" cx="30.681" cy="17.95" r="1.454"/>
	<g>
		<g>
			<path fill="#FFFFFF" d="M35.842,18.445c0.233-0.038,0.45-0.163,0.598-0.369l8.062-11.219c0.295-0.412,0.201-0.984-0.209-1.28
				c-0.412-0.294-0.985-0.201-1.282,0.21l-8.06,11.219c-0.296,0.411-0.202,0.985,0.21,1.28
				C35.366,18.434,35.61,18.483,35.842,18.445z"/>
		</g>
		<circle fill="#A7A9AC" cx="43.756" cy="6.322" r="0.917"/>
	</g>
</g>
<g>
	<circle fill="#73D6D9" cx="20.627" cy="34.556" r="8.06"/>
	<path fill="#FEC92F" d="M13.884,35.662c-0.609-3.718,1.919-7.24,5.638-7.849c3.718-0.609,7.238,1.921,7.847,5.64
		c0.609,3.718-1.919,7.239-5.637,7.849C18.013,41.91,14.493,39.379,13.884,35.662z"/>
	<path fill="#D1D3D4" d="M14.948,36.427c-0.609-3.718,1.92-7.24,5.64-7.849c1.626-0.267,3.213,0.067,4.537,0.84
		c-1.483-1.297-3.511-1.948-5.603-1.605c-3.719,0.609-6.248,4.131-5.638,7.849c0.343,2.091,1.605,3.808,3.308,4.8
		C16.039,39.453,15.214,38.054,14.948,36.427z"/>
	<path fill="#FEAD27" d="M15.903,35.331c-0.427-2.604,1.345-5.071,3.95-5.498c2.606-0.427,5.072,1.346,5.499,3.95
		c0.427,2.606-1.345,5.071-3.951,5.498C18.796,39.708,16.33,37.937,15.903,35.331z"/>
	<circle fill="#FEC92F" cx="17.646" cy="37.134" r="1.454"/>
	<g>
		<g>
			<path fill="#FFFFFF" d="M18.875,34.096c-0.233,0.038-0.479-0.013-0.684-0.159L6.971,25.875c-0.411-0.295-0.504-0.867-0.209-1.28
				c0.296-0.411,0.869-0.504,1.282-0.21l11.218,8.062c0.412,0.294,0.505,0.867,0.21,1.28C19.323,33.931,19.107,34.058,18.875,34.096
				z"/>
		</g>
		<circle fill="#A7A9AC" cx="7.506" cy="25.13" r="0.917"/>
	</g>
</g>
</svg>
