<?xml version="1.0" encoding="utf-8"?>
<!-- Generator: Adobe Illustrator 16.0.0, SVG Export Plug-In . SVG Version: 6.00 Build 0)  -->
<!DOCTYPE svg PUBLIC "-//W3C//DTD SVG 1.1//EN" "http://www.w3.org/Graphics/SVG/1.1/DTD/svg11.dtd">
<svg version="1.1" id="Ebene_1" xmlns="http://www.w3.org/2000/svg" xmlns:xlink="http://www.w3.org/1999/xlink" x="0px" y="0px"
	 width="169px" height="209px" viewBox="0 0 169 209" enable-background="new 0 0 169 209" xml:space="preserve">
<g>
	<g>
		<g>
			<path fill="#00B0DC" d="M94.119,204.508H75.634c-11.121,0-20.168-9.041-20.168-20.158v-69.42H24.156
				c-6.181-0.047-14.768-0.832-18.536-7.189c-3.805-6.414,0.07-13.618,1.72-16.694l0.57-0.893L72.408,5.025
				C79.804-1.58,88.433-1.66,95.59,4.703l0.926,0.995l66.873,88.644c3.59,6.783,2.403,11.435,0.776,14.137
				c-3.891,6.451-12.67,6.451-15.549,6.451h-34.332v69.42C114.285,195.467,105.235,204.508,94.119,204.508z M62.348,101.167h6.882
				v83.183c0,3.525,2.875,6.396,6.404,6.396h18.484c3.533,0,6.404-2.87,6.404-6.396v-83.183h48.02l0,0
				c1.178,0,2.075-0.065,2.748-0.145L85.998,14.613c-1.393-1.089-1.852-1.407-3.969,0.295L19.228,98.012
				c-0.604,1.154-0.953,1.978-1.164,2.553c1.023,0.271,2.894,0.579,6.139,0.603H62.348z"/>
		</g>
		<g>
			<path fill-rule="evenodd" clip-rule="evenodd" fill="#FFFFFF" d="M13.404,94.305c-3.938,7.325-5.115,13.631,10.752,13.744h38.192
				v67.055v9.246c0,7.303,5.975,13.277,13.286,13.277h9.236h0.01h9.238c7.311,0,13.285-5.975,13.285-13.277v-9.246v-67.055h41.139
				c9.966,0.018,12.312-3.777,8.76-10.486L91.023,9.85c-4.88-4.333-9.527-3.707-14.033,0.313L13.404,94.305z"/>
		</g>
	</g>
	<g opacity="0.1">
		<path fill-rule="evenodd" clip-rule="evenodd" d="M24.156,108.049h38.192v67.055v9.246c0,7.303,5.975,13.277,13.286,13.277h9.246
			h9.238c6.207,0,11.443-4.301,12.893-10.07c-8.836,4.647-37.922,4.983-37.922-11.752v-9.256V99.493H30.896
			c-15.866-0.107-14.688-6.418-10.752-13.739l53.068-70.215c-0.037-0.08-0.065-0.164-0.094-0.248L13.404,94.305
			C9.466,101.63,8.28,107.936,24.156,108.049z"/>
	</g>
	<g opacity="0.1">
		<path fill-rule="evenodd" clip-rule="evenodd" d="M107.404,99.493v8.556h41.139c9.031,0.018,11.799-3.096,9.602-8.672
			c-0.869,0.079-1.823,0.121-2.861,0.116C150.646,99.493,121.652,99.493,107.404,99.493z"/>
	</g>
</g>
</svg>
