<?xml version="1.0" encoding="utf-8"?>
<!-- Generator: Adobe Illustrator 16.0.0, SVG Export Plug-In . SVG Version: 6.00 Build 0)  -->
<!DOCTYPE svg PUBLIC "-//W3C//DTD SVG 1.1//EN" "http://www.w3.org/Graphics/SVG/1.1/DTD/svg11.dtd">
<svg version="1.1" id="Ebene_1" xmlns="http://www.w3.org/2000/svg" xmlns:xlink="http://www.w3.org/1999/xlink" x="0px" y="0px"
	 width="162px" height="146px" viewBox="0 0 162 146" enable-background="new 0 0 162 146" xml:space="preserve">
<g opacity="0.9">
	<path fill="#FFFFFF" d="M16.908,104.077c-0.224,0.934-0.354,1.576-0.531,2.205c-3.785,13.439,3.211,24.341,16.906,26.517
		c1.346,0.214,2.96,0.89,3.78,1.896c3.951,4.854,7.25,5.93,13.353,4.668c1.723-0.356,4.182,0.075,5.529,1.132
		c8.873,6.958,26.629,7.599,35.145,0.318c3.4-2.908,5.79-3.306,9.938-1.771c11.377,4.209,18.625,0.104,21.346-11.275
		c0.256-1.07,0.661-2.104,1.013-3.205c1.478,0.178,2.619,0.371,3.769,0.445c11.556,0.746,25.512-11.77,23.355-22.691
		c-1.467-7.435,0.323-12.202,5.025-16.969c0.23-0.233,0.393-0.537,0.572-0.817c11.327-17.571,3.475-34.971-17.186-37.772
		c-3.705-0.502-7.538-0.071-11.938-0.071c3.318-8.885,2.083-16.628-4.658-22.708c-6.608-5.96-14.706-6.168-22.906-4.319
		C94.922,7.385,86.811,0.109,73.706-0.052c-10.52-0.129-19.997,2.243-23.975,13.666c-19.341,0.766-21.274,2.327-28.021,22.667
		C10.795,35.952,5.168,43.056,1.76,52.019c-3.147,8.278-2.416,16.391,4.99,22.496C1.312,89.657,3.251,95.346,16.908,104.077z"/>
	<path fill-rule="evenodd" clip-rule="evenodd" fill="#CECECE" d="M23.629,39.497c2.196-8.84,4.121-17.443,12.725-21.921
		c8.893-4.627,16.541,0.148,24.102,4.729c0.22-0.479,0.438-0.958,0.657-1.437c-1.678-1.317-3.267-2.771-5.051-3.923
		c-3.841-2.479-4.242-4.484-0.828-7.689c5.125-4.81,11.438-6.842,18.359-6.235c16.537,1.449,22.464,8.752,21.037,25.415
		c-0.078,0.911,0.182,1.851,1.424,3.271c0.891-1.693,2.289-3.306,2.57-5.095c0.609-3.878,3.152-4.757,6.355-4.983
		c13.622-0.964,22.136,8.675,19.371,21.901c-0.371,1.775-0.727,3.553-1.111,5.435c11.609-3.376,27.873,2.177,32.894,11.082
		c5.073,9.001,1.802,20.363-8.954,30.776c-2.578-1.014-5.245-2.062-7.911-3.109c-0.425,0.269-0.851,0.537-1.276,0.805
		c8.088,7.476,14.159,15.515,5.339,25.558c-5.854,6.667-13.474,9.372-22.942,7.274c-2.312,4.998-0.727,13.145-7.967,15.036
		c-4.685,1.224-10.006,0.013-15.086-0.108c0.721-5.246,1.287-9.356,1.853-13.466c-0.521-0.232-1.042-0.464-1.563-0.696
		c-3.756,9.012-6.174,19.286-18.171,20.539c-10.022,1.047-19.809,1.342-26.392-8.408c-3.007,3.785-9.992,3.954-12.271-0.153
		c-1.705-3.075-3.857-3.968-7.083-4.407c-12.17-1.657-18.359-12.136-14.262-23.94c0.426-1.228,1.725-2.152,2.984-3.651
		C16.285,98.924,8.574,97.151,6.708,88.78c-1.84-8.25,4.031-13.389,8.059-19.212c-2.48,0.547-5.972,2.121-6.648,1.319
		C5.88,68.235,3.649,64.85,3.24,61.522c-1.16-9.425,4.912-17.634,14.067-20.306C19.52,40.571,21.755,40.005,23.629,39.497z
		 M74.826,116.144c-3.154,0-7.175,1.206-9.302-0.287c-3.075-2.159-5.293-1.845-8.457-1.141c-6.522,1.45-13.185-2.911-14.165-8.836
		c1.172-0.181,2.332-0.361,2.332-0.361c-3.541-4.28-8.289-8.257-10.672-13.341c-3.076-6.56,3.764-10.27,6.684-15.37
		c-2.71,0.898-5.364,1.968-7.012,3.897c-4.988,5.84-3.826,14.653,2.191,20.711c1.462,1.472,3.029,3.133,3.735,5.013
		c2.961,7.879,9.725,11.997,17.984,10.764c1.504-0.225,3.404-0.244,4.621,0.481C67.646,120.585,71.525,119.064,74.826,116.144z
		 M108.52,68.748c9.85,0.038,16.215,3.043,17.487,9.064c2.603,12.306-8.192,13.079-15.46,16.636c2.223,3.554,8.1-1.833,8.555,3.82
		c0.588,7.306-6.588,5.805-10.816,8.065c1.441,1.333,2.545,2.354,4.356,4.028c-3.704,1.643-6.688,2.966-10.132,4.493
		c9.797,3.472,10.62-6.971,16.257-9.616c1.747-0.82,3.157-5.082,2.663-7.312c-0.752-3.396-0.009-4.949,2.596-6.917
		c5.393-4.074,6.364-10.983,2.803-16.465C122.66,68.128,114.51,65.548,108.52,68.748z M99.283,64.849
		c5.953-7.753,0.145-20.069-9.734-22.096c-2.912-0.598-4.91-1.515-6.787-4.052c-3.127-4.225-7.584-5.624-13.144-5.289
		c-8.645,0.521-12.733,6.251-16.718,12.514c2.758-0.612,5.518-1.225,8.801-1.954c-1.463-0.784-2.393-1.283-3.707-1.987
		c3.551-5.814,9.02-6.972,14.733-6.916c7.464,0.074,9.551,5.923,10.729,10.402c2.84-0.319,5.186-1.293,6.936-0.649
		c5.689,2.094,8.509,6.646,8.867,12.652C99.405,59.925,99.283,62.391,99.283,64.849z M31.506,74.082
		c-1.121-3.83-2.119-7.243-3.231-11.046c2.774-0.282,4.253-0.433,6.133-0.625c-8.433-7.557-8.634-12.153-1.284-19.046
		c-5.331-0.356-8.878,5.123-7.824,11.681c0.531,3.298,0.647,6.673,0.789,10.02C26.26,69.111,26.808,72.793,31.506,74.082z
		 M92.221,75.107c0.549,2.722,2.682,6.807,1.443,8.836c-1.48,2.428-5.842,3.098-9.586,4.82c2.176,0.565,3.65,0.948,6.361,1.652
		c-2.814,2.29-4.828,3.927-6.842,5.565c0.355,0.38,0.713,0.761,1.068,1.141c1.816-1.645,3.72-3.206,5.416-4.966
		c0.971-1.008,1.354-2.689,2.433-3.47C98.651,84.248,98.39,79.178,92.221,75.107z M68.663,50.124
		c-0.015-0.599-0.029-1.197-0.044-1.795c-2.59,0.43-5.371,0.41-7.719,1.409c-2.616,1.114-4.812,3.192-7.236,4.782
		c-2.781,1.824-3.451,3.587-2.205,6.917c2.154-8.219,8.512-5.52,13.953-6.037c-1.389-0.925-2.777-1.85-5.584-3.718
		C63.754,50.989,66.209,50.556,68.663,50.124z"/>
	<g>
		<path fill-rule="evenodd" clip-rule="evenodd" fill="#8C8E91" d="M16.908,104.077C3.251,95.346,1.312,89.657,6.75,74.515
			c-7.406-6.105-8.137-14.218-4.99-22.496c3.408-8.963,9.035-16.067,19.951-15.738c6.747-20.34,8.68-21.902,28.021-22.667
			C53.709,2.191,63.187-0.182,73.706-0.052C86.811,0.109,94.922,7.385,99.42,19.66c8.2-1.849,16.298-1.641,22.906,4.319
			c6.741,6.08,7.977,13.823,4.658,22.708c4.399,0,8.232-0.431,11.938,0.071c20.66,2.801,28.513,20.201,17.186,37.772
			c-0.18,0.28-0.342,0.583-0.572,0.817c-4.702,4.767-6.492,9.534-5.025,16.969c2.156,10.921-11.8,23.438-23.355,22.691
			c-1.149-0.075-2.291-0.268-3.769-0.445c-0.352,1.1-0.757,2.134-1.013,3.205c-2.721,11.38-9.969,15.484-21.346,11.275
			c-4.147-1.535-6.537-1.137-9.938,1.771c-8.516,7.281-26.271,6.64-35.145-0.318c-1.348-1.057-3.807-1.489-5.529-1.132
			c-6.104,1.262-9.402,0.186-13.353-4.668c-0.82-1.007-2.435-1.683-3.78-1.896c-13.695-2.176-20.69-13.077-16.906-26.517
			C16.554,105.653,16.685,105.011,16.908,104.077z M23.629,39.497c-1.874,0.508-4.109,1.074-6.321,1.719
			C8.152,43.889,2.08,52.098,3.24,61.522c0.409,3.328,2.64,6.712,4.877,9.364c0.676,0.802,4.168-0.772,6.648-1.319
			C10.739,75.392,4.867,80.53,6.708,88.78c1.867,8.371,9.577,10.144,15.723,13.313c-1.259,1.5-2.558,2.424-2.984,3.651
			c-4.097,11.804,2.092,22.284,14.262,23.94c3.225,0.439,5.377,1.332,7.083,4.407c2.279,4.107,9.264,3.938,12.271,0.153
			c6.583,9.75,16.369,9.455,26.392,8.408c11.997-1.252,14.415-11.527,18.171-20.539c0.521,0.232,1.043,0.464,1.563,0.696
			c-0.565,4.11-1.132,8.221-1.853,13.466c5.08,0.121,10.401,1.332,15.086,0.108c7.24-1.891,5.654-10.038,7.967-15.036
			c9.469,2.098,17.088-0.607,22.942-7.274c8.82-10.043,2.749-18.083-5.339-25.558c0.426-0.269,0.852-0.537,1.276-0.805
			c2.666,1.048,5.333,2.096,7.911,3.109c10.756-10.413,14.027-21.775,8.954-30.776c-5.021-8.905-21.284-14.458-32.894-11.082
			c0.385-1.881,0.74-3.66,1.111-5.435c2.765-13.226-5.749-22.865-19.371-21.901c-3.203,0.227-5.746,1.105-6.355,4.983
			c-0.281,1.789-1.68,3.402-2.57,5.095c-1.242-1.42-1.502-2.36-1.424-3.271c1.427-16.662-4.5-23.965-21.037-25.415
			c-6.922-0.606-13.234,1.425-18.359,6.235c-3.414,3.205-3.013,5.21,0.828,7.689c1.784,1.151,3.373,2.605,5.051,3.923
			c-0.219,0.479-0.438,0.958-0.657,1.437c-7.562-4.581-15.209-9.356-24.102-4.729C27.75,22.054,25.825,30.657,23.629,39.497z"/>
		<path fill-rule="evenodd" clip-rule="evenodd" fill="#8C8E91" d="M74.826,116.144c-3.301,2.92-7.181,4.441-12.061,1.53
			c-1.217-0.726-3.117-0.706-4.621-0.481c-8.26,1.233-15.023-2.884-17.984-10.764c-0.706-1.88-2.272-3.541-3.735-5.013
			c-6.017-6.059-7.179-14.871-2.191-20.711c1.648-1.929,4.302-2.999,7.012-3.897c-2.92,5.101-9.76,8.81-6.684,15.37
			c2.384,5.084,7.131,9.061,10.672,13.341c0,0-1.16,0.18-2.332,0.361c0.98,5.925,7.643,10.287,14.165,8.836
			c3.164-0.704,5.382-1.018,8.457,1.141C67.651,117.35,71.672,116.144,74.826,116.144z"/>
		<path fill-rule="evenodd" clip-rule="evenodd" fill="#8C8E91" d="M108.52,68.748c5.99-3.2,14.141-0.62,18.309,5.796
			c3.562,5.482,2.59,12.391-2.803,16.465c-2.604,1.968-3.348,3.521-2.596,6.917c0.494,2.23-0.916,6.493-2.663,7.312
			c-5.637,2.646-6.46,13.088-16.257,9.616c3.443-1.527,6.428-2.85,10.132-4.493c-1.812-1.675-2.915-2.696-4.356-4.028
			c4.229-2.26,11.404-0.759,10.816-8.065c-0.455-5.653-6.332-0.266-8.555-3.82c7.268-3.558,18.062-4.33,15.46-16.636
			C124.734,71.791,118.369,68.786,108.52,68.748z"/>
		<path fill-rule="evenodd" clip-rule="evenodd" fill="#8C8E91" d="M99.283,64.849c0-2.458,0.122-4.924-0.023-7.374
			c-0.358-6.006-3.178-10.558-8.867-12.652c-1.75-0.644-4.096,0.33-6.936,0.649c-1.179-4.479-3.266-10.328-10.729-10.402
			c-5.714-0.057-11.183,1.101-14.733,6.916c1.314,0.704,2.244,1.203,3.707,1.987c-3.283,0.729-6.043,1.342-8.803,1.96
			c3.986-6.269,8.075-11.999,16.72-12.52c5.56-0.335,10.017,1.064,13.144,5.289c1.877,2.537,3.875,3.455,6.787,4.052
			C99.428,44.78,105.236,57.096,99.283,64.849z"/>
		<path fill-rule="evenodd" clip-rule="evenodd" fill="#8C8E91" d="M31.506,74.082c-4.698-1.289-5.246-4.971-5.417-9.016
			c-0.142-3.347-0.258-6.722-0.789-10.02c-1.055-6.558,2.493-12.037,7.824-11.681c-7.351,6.893-7.149,11.49,1.284,19.046
			c-1.879,0.191-3.358,0.342-6.133,0.625C29.387,66.839,30.385,70.252,31.506,74.082z"/>
		<path fill-rule="evenodd" clip-rule="evenodd" fill="#8C8E91" d="M92.221,75.107c6.169,4.071,6.431,9.14,0.294,13.579
			c-1.079,0.781-1.462,2.462-2.433,3.47c-1.696,1.76-3.6,3.321-5.416,4.966c-0.355-0.38-0.713-0.761-1.068-1.141
			c2.014-1.638,4.027-3.275,6.842-5.565c-2.711-0.704-4.186-1.087-6.361-1.652c3.744-1.722,8.105-2.393,9.586-4.82
			C94.902,81.915,92.77,77.83,92.221,75.107z"/>
		<path fill-rule="evenodd" clip-rule="evenodd" fill="#8C8E91" d="M68.663,50.124c-2.454,0.433-4.909,0.865-8.835,1.557
			c2.807,1.868,4.195,2.793,5.584,3.718c-5.441,0.517-11.799-2.182-13.953,6.037c-1.246-3.329-0.576-5.093,2.205-6.917
			c2.424-1.59,4.62-3.668,7.236-4.782c2.348-0.999,5.129-0.979,7.719-1.409C68.634,48.927,68.648,49.525,68.663,50.124z"/>
	</g>
</g>
</svg>
